<?xml version="1.0" standalone="no"?>
<!DOCTYPE svg PUBLIC "-//W3C//DTD SVG 20010904//EN"
 "http://www.w3.org/TR/2001/REC-SVG-20010904/DTD/svg10.dtd">
<svg version="1.0" xmlns="http://www.w3.org/2000/svg"
 width="784.000000pt" height="447.000000pt" viewBox="0 0 784.000000 447.000000"
 preserveAspectRatio="xMidYMid meet">

<g transform="translate(0.000000,447.000000) scale(0.100000,-0.100000)"
fill="#000000" stroke="none">
<path d="M0 2235 l0 -2235 3920 0 3920 0 0 2235 0 2235 -3920 0 -3920 0 0
-2235z m5148 2083 c9 -9 12 -9 12 3 0 11 2 11 9 1 5 -8 28 -13 59 -14 38 0 52
-4 52 -14 0 -8 -4 -14 -10 -14 -5 0 -10 6 -10 13 0 8 -2 9 -8 1 -11 -17 -49
-26 -57 -14 -5 8 -10 8 -20 0 -10 -8 -15 -8 -20 0 -4 6 -13 9 -21 6 -10 -4
-14 2 -14 19 0 27 9 32 28 13z m777 -50 c7 -18 145 -14 156 4 7 10 9 10 9 -2
0 -12 12 -15 56 -13 55 3 55 3 52 -24 -3 -31 -38 -47 -38 -18 0 9 -4 14 -9 10
-6 -3 -14 3 -20 12 -10 17 -10 17 -11 -1 0 -15 -3 -16 -14 -7 -11 9 -15 9 -19
-1 -4 -8 -6 -7 -6 5 -1 20 -21 24 -21 4 0 -11 -19 -14 -82 -13 -83 1 -83 1
-86 29 -2 19 1 27 13 27 8 0 18 -6 20 -12z m-770 -38 c3 -5 14 -10 25 -10 13
0 17 -5 13 -20 -4 -15 -9 -18 -18 -10 -9 8 -15 8 -20 0 -14 -22 -35 -10 -35
20 0 30 21 42 35 20z m115 -27 c0 -17 -17 -26 -25 -13 -5 8 -11 7 -21 -1 -11
-9 -14 -7 -14 10 0 18 5 21 30 19 17 -1 30 -8 30 -15z m48 0 c-2 -10 -10 -18
-18 -18 -8 0 -16 8 -18 18 -2 12 3 17 18 17 15 0 20 -5 18 -17z m612 -22 c0
-5 -6 -12 -12 -15 -10 -5 -10 -7 0 -12 17 -8 15 -24 -3 -24 -18 0 -30 24 -21
45 6 16 36 21 36 6z m108 -34 c2 -10 -3 -17 -12 -17 -9 0 -16 -6 -16 -12 -1
-9 -4 -8 -13 2 -7 8 -22 14 -34 12 -17 -3 -23 2 -23 17 0 18 6 20 47 18 37 -2
49 -6 51 -20z m-892 -27 c1 -19 -3 -30 -12 -30 -9 0 -14 11 -14 30 0 17 5 30
13 30 7 0 13 -13 13 -30z m114 15 c0 -9 6 -12 15 -9 10 4 15 0 15 -15 0 -18
-6 -21 -40 -21 -33 0 -40 3 -40 20 0 11 7 20 15 20 8 0 15 5 15 10 0 6 5 10
10 10 6 0 10 -7 10 -15z m96 -11 c8 3 14 0 14 -7 0 -8 3 -8 9 2 11 17 41 7 41
-13 0 -11 -11 -14 -45 -13 -25 1 -45 6 -45 12 0 5 -4 3 -10 -5 -13 -21 -23 -5
-16 25 6 24 8 25 23 10 8 -9 22 -14 29 -11z m102 3 c9 4 20 11 24 17 4 6 8 -4
8 -22 0 -30 -2 -32 -30 -30 -27 2 -30 6 -29 33 1 16 3 22 6 13 3 -11 10 -15
21 -11z m-258 -18 c0 -17 -3 -19 -14 -10 -11 9 -15 9 -19 -1 -3 -7 -6 -3 -6
10 -1 16 5 22 19 22 14 0 20 -7 20 -21z m716 -25 c-5 -13 -1 -15 18 -10 20 5
24 2 23 -12 -1 -13 -10 -18 -32 -19 -27 -1 -31 2 -29 26 2 32 1 31 15 31 6 0
8 -7 5 -16z m80 -20 c-3 -9 -6 -18 -6 -20 0 -2 -4 -4 -9 -4 -5 0 -7 9 -4 20 3
11 10 20 15 20 6 0 7 -7 4 -16z m103 0 c2 -2 10 1 18 7 7 6 13 8 13 3 0 -18
-15 -31 -35 -31 -11 0 -24 5 -28 11 -6 8 -10 7 -14 -1 -6 -17 -43 -17 -43 0 0
8 3 16 6 20 6 5 75 -2 83 -9z m65 0 c9 -22 8 -24 -9 -24 -8 0 -15 9 -15 20 0
24 15 27 24 4z m245 -64 c-6 -16 -13 -30 -15 -30 -2 0 -4 14 -4 30 0 20 5 30
14 30 12 0 13 -6 5 -30z m61 0 c0 -6 8 -5 20 2 17 11 22 10 30 -2 5 -8 6 -18
3 -23 -3 -5 -9 -3 -14 4 -5 8 -9 10 -9 4 0 -5 -16 -11 -35 -12 -29 -3 -35 0
-35 17 0 13 7 20 20 20 11 0 20 -5 20 -10z m-416 -430 c7 0 33 7 56 15 23 8
54 15 69 14 19 -1 16 -3 -14 -9 -70 -15 -120 -36 -123 -54 -2 -9 8 -26 22 -37
14 -11 25 -28 25 -37 -1 -16 -2 -16 -6 0 -6 24 -33 31 -33 9 0 -11 -3 -28 -6
-38 -3 -10 -2 -14 3 -8 12 15 43 15 43 0 0 -7 -9 -19 -21 -26 -26 -18 -42
-115 -18 -107 8 2 15 16 17 30 2 18 13 30 33 38 16 7 29 17 29 22 0 5 -5 6
-12 2 -7 -5 -9 -2 -5 8 3 9 0 21 -6 27 -8 8 -8 11 0 11 7 0 39 -25 71 -55 66
-61 127 -166 158 -270 20 -69 24 -277 5 -283 -7 -2 -6 -13 4 -32 28 -54 17
-82 -37 -95 -16 -4 -36 -21 -48 -42 -11 -19 -25 -31 -30 -28 -6 3 -10 1 -10
-4 0 -6 6 -11 13 -11 21 0 208 65 253 88 73 37 133 130 158 245 10 46 14 54
15 30 1 -46 -41 -155 -80 -207 -51 -67 -96 -91 -295 -156 -197 -65 -260 -73
-339 -45 -22 8 -46 15 -54 15 -8 0 -25 10 -38 22 -28 27 -41 17 -26 -22 22
-59 -62 -128 -115 -94 -23 15 -28 14 -100 -23 -65 -33 -84 -38 -141 -38 -80 0
-154 29 -225 88 -45 38 -50 39 -80 29 -50 -18 -61 -15 -82 23 -18 33 -18 36
-1 65 11 18 14 30 7 30 -6 0 -22 11 -35 25 l-25 24 0 -40 c0 -51 -33 -86 -90
-95 -30 -5 -45 -13 -52 -30 -6 -13 -15 -24 -19 -24 -5 0 -22 -13 -39 -30 -37
-36 -63 -40 -30 -4 21 21 22 27 10 34 -31 20 -76 8 -80 -20 -5 -31 1 -40 23
-41 22 -2 22 -2 -1 -6 -16 -3 -29 -17 -38 -40 -18 -42 -30 -39 -13 3 6 16 11
59 11 96 0 88 -38 174 -100 229 -60 52 -77 50 -25 -3 23 -24 55 -70 70 -103
25 -53 28 -72 29 -168 l1 -108 -48 -42 c-44 -38 -74 -51 -341 -140 -268 -89
-344 -108 -361 -91 -3 4 -41 7 -84 8 -43 1 -85 5 -94 9 -11 6 -19 -2 -31 -27
-15 -31 -23 -36 -75 -46 -96 -19 -106 -17 -143 24 -23 24 -37 32 -54 29 -69
-14 -133 99 -96 168 6 10 24 26 40 34 22 12 30 23 30 43 0 16 9 38 20 50 18
19 20 37 22 149 l2 128 3 -123 4 -122 42 22 c23 13 47 30 54 38 9 11 13 90 15
300 l2 285 6 -302 c4 -262 7 -305 21 -319 15 -15 18 -13 39 25 16 27 37 47 67
61 29 14 43 26 43 40 0 11 5 20 11 20 6 0 24 9 40 21 16 11 138 57 271 102
l243 82 5 145 6 145 2 -143 2 -142 28 7 c53 15 163 4 207 -21 38 -21 42 -22
67 -7 l28 16 2 225 3 225 2 -222 3 -221 33 -7 c17 -4 47 -19 66 -32 27 -21 35
-23 42 -12 5 8 9 17 9 21 0 4 9 10 20 13 11 3 20 15 20 25 0 25 18 36 26 16 3
-9 18 -16 31 -16 16 0 38 -13 59 -36 l34 -35 2 33 c0 18 0 43 -1 55 -2 26 17
40 25 19 3 -9 16 -16 28 -16 27 0 62 -35 71 -71 7 -26 -17 -89 -33 -89 -4 0
-16 -13 -25 -30 -13 -22 -15 -34 -8 -47 26 -46 27 -46 60 -29 33 18 33 19 -2
69 -22 33 -15 48 11 24 10 -10 22 -14 25 -10 4 3 7 -3 7 -15 0 -42 88 -119
172 -151 25 -9 28 -7 42 21 10 20 16 58 16 106 0 63 -2 73 -16 68 -8 -3 -31 1
-51 9 -33 14 -37 14 -64 -8 -15 -12 -31 -30 -34 -39 -4 -11 -17 -18 -32 -18
-24 0 -24 2 18 40 24 21 47 39 52 40 12 0 8 27 -6 38 -9 8 -25 -1 -62 -36 -27
-26 -46 -39 -42 -29 4 10 7 23 7 28 0 5 5 9 12 9 39 0 77 81 44 93 -21 8 -48
65 -41 87 3 10 17 25 30 34 14 9 25 23 25 31 0 8 5 15 10 15 29 0 3 17 -52 35
-35 11 -55 21 -47 23 9 2 40 -6 68 -17 l52 -19 72 24 c39 13 75 23 80 21 6 -2
-9 -9 -32 -17 -22 -7 -41 -16 -41 -19 0 -4 13 -14 28 -23 26 -16 31 -16 76 0
35 13 46 21 43 34 -3 11 0 15 10 11 15 -6 53 24 53 42 0 21 -98 105 -147 127
-57 25 -108 27 -150 6 -30 -15 -31 -15 -28 3 6 29 -13 23 -47 -16 -17 -19 -34
-32 -38 -30 -4 3 -22 -28 -41 -68 -28 -59 -34 -87 -37 -154 -2 -46 -8 -83 -13
-83 -19 0 -14 125 8 195 22 69 75 147 123 180 22 16 40 36 40 46 0 22 18 26
26 6 3 -10 17 -11 60 -3 49 9 55 14 62 40 6 23 16 32 41 38 45 12 99 -7 107
-37 9 -37 34 -40 47 -5 13 34 23 36 74 15 43 -18 50 -14 30 15 -9 13 -17 17
-22 11 -3 -6 -10 -11 -16 -11 -18 0 -9 22 21 48 17 15 30 32 30 38 0 13 64 57
98 68 22 7 22 11 24 179 l2 172 3 -167 c2 -93 7 -168 11 -168 4 0 45 13 92 29
l85 28 5 214 5 214 3 -207 c2 -167 5 -208 16 -208z m-264 367 c0 -8 13 -13 35
-13 21 0 35 5 35 12 0 7 8 10 20 7 13 -4 20 -14 20 -30 0 -22 -2 -24 -15 -13
-8 7 -15 8 -15 3 0 -5 -25 -8 -55 -8 -30 0 -55 3 -55 8 0 4 0 16 0 27 0 11 7
20 15 20 8 0 15 -6 15 -13z m640 -7 c0 -5 -7 -10 -15 -10 -8 0 -15 -4 -15 -9
0 -18 21 -23 37 -10 12 11 173 23 173 13 0 -1 -3 -9 -6 -18 -7 -19 -60 -22
-67 -3 -4 9 -8 8 -16 -3 -10 -13 -12 -13 -21 0 -7 11 -12 12 -17 3 -5 -6 -25
-11 -46 -11 -40 0 -54 15 -43 43 6 17 36 21 36 5z m-1619 -149 c6 10 9 7 9
-13 0 -30 -9 -35 -28 -16 -9 9 -12 9 -12 -1 0 -7 -4 -10 -9 -7 -8 5 -8 14 -2
45 1 2 8 -2 17 -10 13 -10 17 -10 25 2z m96 -7 c4 -11 -1 -22 -12 -30 -28 -21
-35 -17 -35 16 0 23 4 30 20 30 11 0 23 -7 27 -16z m67 -11 c-1 -28 -17 -42
-29 -23 -9 14 4 50 19 50 6 0 11 -12 10 -27z m626 -47 c0 -7 -7 -19 -15 -26
-13 -11 -15 -8 -15 14 0 16 5 26 15 26 8 0 15 -6 15 -14z m110 -21 c0 -18 -20
-20 -21 -2 0 10 -2 10 -6 0 -7 -19 -73 -17 -73 2 0 11 12 15 50 15 38 0 50 -4
50 -15z m-910 -8 c0 -10 14 -13 56 -9 50 4 56 3 52 -14 -3 -15 -13 -18 -68
-19 -69 0 -81 6 -73 36 6 21 33 26 33 6z m216 -19 c3 -5 3 -12 -1 -16 -3 -3
-10 0 -15 8 -7 10 -10 11 -10 3 0 -7 -9 -13 -19 -13 -11 0 -22 6 -24 13 -4 9
-8 8 -16 -3 -9 -13 -11 -13 -11 2 0 14 9 17 45 16 25 0 48 -5 51 -10z m52 -15
c-2 -17 -9 -28 -18 -28 -9 0 -16 11 -18 28 -3 22 1 27 18 27 17 0 21 -5 18
-27z m1295 -87 c29 -14 63 -35 77 -47 18 -15 12 -13 -20 6 -61 36 -106 55
-154 66 l-41 8 43 -3 c24 -3 67 -16 95 -30z m-1335 -64 c4 -28 -24 -40 -45
-19 -21 21 -9 49 19 45 15 -2 24 -11 26 -26z m52 -1 c0 -24 -3 -28 -20 -24
-22 6 -28 33 -7 33 8 0 7 4 -3 10 -12 8 -11 10 8 10 18 0 22 -6 22 -29z m400
-26 c0 -7 7 -18 16 -23 15 -8 15 -13 3 -41 -8 -17 -21 -31 -29 -31 -21 0 -47
59 -31 70 7 4 11 11 10 16 -3 18 1 24 16 24 8 0 15 -7 15 -15z m1028 -16 c45
-53 47 -67 3 -21 -23 24 -41 45 -41 47 0 12 13 2 38 -26z m-1958 -31 c0 -10
21 -12 80 -10 72 3 80 1 80 -15 0 -15 -2 -16 -10 -3 -7 10 -12 12 -17 4 -11
-15 -48 -23 -64 -13 -7 4 -18 4 -24 0 -5 -4 -26 -7 -45 -7 -31 1 -35 4 -38 29
-3 22 1 27 17 27 12 0 21 -6 21 -12z m347 -55 c-2 -16 -4 -5 -4 22 0 28 2 40
4 28 2 -13 2 -35 0 -50z m107 53 c-5 -12 4 -14 47 -11 35 3 56 0 61 -8 5 -8 8
-4 8 11 0 12 5 22 10 22 15 0 12 -50 -2 -51 -7 -1 -42 -2 -78 -4 -65 -2 -65
-2 -67 27 -1 19 3 28 12 28 8 0 12 -6 9 -14z m1496 -16 c0 -21 -15 -27 -25
-10 -7 12 2 30 16 30 5 0 9 -9 9 -20z m-1680 -11 c0 -22 -32 -39 -38 -21 -2 7
-10 12 -18 12 -8 0 -14 6 -15 13 0 10 -2 10 -6 0 -6 -17 -23 -16 -23 1 0 10
14 14 50 14 43 1 50 -2 50 -19z m1787 -97 c14 -29 23 -55 22 -57 -2 -2 -21 31
-41 73 -20 42 -30 68 -21 57 8 -11 26 -44 40 -73z m-2068 32 c-10 -13 -10 -17
1 -24 19 -12 8 -22 -14 -14 -28 11 -19 54 12 54 12 0 12 -3 1 -16z m121 -19
c0 -17 -40 -41 -49 -29 -3 5 -15 9 -26 9 -11 0 -21 8 -23 18 -3 14 4 17 47 17
38 0 51 -4 51 -15z m-480 -55 c0 -21 16 -28 22 -9 2 6 35 11 76 12 60 2 72 0
70 -13 -3 -11 -18 -15 -58 -16 -30 -1 -59 -2 -65 -4 -5 -1 -27 -2 -47 -1 -34
1 -38 4 -38 26 0 18 5 25 20 25 13 0 20 -7 20 -20z m-1784 0 c6 -6 26 -11 45
-12 25 -1 35 -6 36 -18 2 -21 -66 -25 -74 -4 -4 10 -10 11 -23 4 -26 -14 -30
-13 -30 8 0 31 25 43 46 22z m120 -4 c20 -20 17 -36 -6 -36 -15 0 -20 7 -20
25 0 29 6 31 26 11z m950 -5 c5 -6 31 -12 58 -16 49 -5 75 -15 43 -15 -9 0
-17 -4 -17 -10 0 -14 -37 -12 -44 3 -5 9 -7 9 -12 -2 -5 -11 -8 -11 -15 0 -7
11 -12 12 -29 1 -18 -11 -20 -10 -20 18 0 30 16 40 36 21z m162 -28 c8 10 29
14 63 12 31 -2 55 3 63 11 17 16 26 8 26 -22 0 -23 -2 -23 -95 -23 l-95 0 1
32 1 32 12 -28 c10 -24 14 -26 24 -14z m3030 -113 l0 -45 -8 50 c-4 28 -10 66
-13 85 -6 34 -6 34 8 -5 7 -22 13 -60 13 -85z m-1761 -177 c-1 -54 -3 -10 -3
97 0 107 2 151 3 98 2 -54 2 -142 0 -195z m-439 241 c4 20 9 20 28 1 8 -8 22
-11 30 -8 14 5 13 1 -2 -28 l-18 -34 -7 30 c-4 17 -7 24 -8 18 -1 -8 -15 -13
-36 -13 -32 0 -35 2 -35 30 l0 31 23 -21 c18 -18 23 -19 25 -6z m-273 -4 c7
-23 21 -26 28 -7 6 16 20 3 15 -15 -2 -9 -15 -12 -44 -8 -38 5 -41 7 -33 28
10 27 26 28 34 2z m-1788 -1 c6 -6 30 -11 52 -11 37 1 41 -2 41 -23 0 -30 -20
-43 -32 -22 -5 10 -15 14 -25 10 -9 -4 -21 1 -28 11 -12 15 -14 15 -28 1 -19
-18 -31 -4 -22 25 7 22 25 26 42 9z m1286 -25 c29 1 37 -2 35 -14 -4 -20 -78
-27 -89 -8 -5 7 -9 8 -9 2 0 -6 -23 -12 -55 -13 -36 -1 -55 3 -55 10 0 8 -4 8
-12 2 -7 -5 -25 -10 -39 -11 -21 -1 -28 4 -31 23 -3 14 -1 25 3 25 5 0 9 -6 9
-12 0 -8 3 -9 8 -3 8 11 62 17 62 6 0 -3 15 -6 33 -5 17 0 38 -4 45 -9 9 -7
12 -3 12 12 0 20 2 20 23 7 12 -7 39 -13 60 -12z m637 8 c0 -14 -8 -18 -35
-18 -26 0 -35 4 -35 16 0 12 10 17 35 18 27 1 35 -2 35 -16z m80 2 c0 -14 -3
-14 -15 -4 -12 10 -15 10 -15 -1 0 -11 -2 -11 -10 1 -6 10 -10 11 -10 3 0 -7
-4 -13 -10 -13 -5 0 -10 7 -10 15 0 10 11 15 35 15 26 0 35 -4 35 -16z m647
-101 c-3 -10 -5 -4 -5 12 0 17 2 24 5 18 2 -7 2 -21 0 -30z m-2569 -416 c8 -9
12 -34 10 -63 -3 -42 -6 -49 -28 -55 l-25 -6 25 -10 c18 -8 39 -5 81 9 l56 19
-5 49 c-5 57 10 102 43 128 12 10 28 28 35 41 11 21 14 22 21 8 5 -9 23 -30
40 -47 29 -28 31 -35 27 -81 -3 -30 -14 -62 -27 -80 -13 -17 -20 -33 -17 -37
4 -3 41 5 84 17 189 58 177 56 226 37 38 -15 46 -23 51 -50 4 -19 15 -36 28
-41 12 -6 26 -20 32 -32 5 -13 15 -23 21 -23 14 0 38 -45 30 -58 -4 -6 6 -12
21 -14 24 -3 28 -7 28 -37 0 -26 5 -36 22 -42 19 -7 22 -13 16 -39 -5 -26 -2
-32 16 -37 18 -5 21 -10 15 -39 -5 -30 -4 -34 15 -34 22 0 28 -14 11 -25 -16
-10 -12 -55 5 -55 18 0 19 -14 4 -42 -9 -18 -8 -24 6 -35 15 -10 16 -17 7 -37
-7 -16 -8 -28 -2 -31 14 -9 12 -49 -2 -63 -22 -22 21 -49 132 -82 128 -38 140
-50 140 -134 1 -46 3 -57 11 -43 5 9 15 17 21 17 6 0 36 21 67 46 l56 46 -52
-50 c-29 -28 -53 -57 -53 -65 0 -15 34 -31 88 -42 32 -7 34 -9 28 -40 -6 -30
-3 -35 21 -47 20 -10 27 -21 26 -36 -3 -26 41 -53 102 -61 32 -5 41 -11 43
-29 4 -26 -13 -52 -34 -52 -7 0 -21 8 -31 19 -26 26 -102 63 -119 57 -23 -9
-16 -23 16 -35 33 -11 40 -40 12 -48 -10 -2 -24 -19 -30 -36 -11 -28 -10 -34
5 -44 40 -28 45 -34 32 -49 -8 -10 -16 -11 -29 -4 -35 19 -68 12 -82 -17 -10
-19 -20 -27 -33 -24 -11 2 -38 4 -61 5 -22 0 -47 6 -55 13 -11 9 -29 8 -79 -6
-81 -23 -140 -48 -140 -60 0 -19 21 -66 33 -73 8 -5 8 -8 -3 -8 -9 0 -24 22
-36 55 l-21 54 28 6 c37 8 29 27 -26 60 -53 30 -61 41 -44 61 20 24 5 25 -44
4 -37 -17 -47 -26 -47 -45 0 -14 8 -29 19 -35 26 -13 34 -13 25 2 -5 7 -3 8 5
3 17 -10 51 -84 51 -110 0 -13 -3 -16 -8 -8 -6 9 -17 9 -47 -1 -38 -14 -42
-13 -127 30 -49 24 -88 41 -88 37 0 -4 -13 6 -30 22 -25 24 -30 36 -30 78 0
46 -1 48 -22 41 -66 -21 -85 -21 -96 -3 -7 11 -12 58 -12 109 0 49 -3 90 -7
90 -5 0 -61 -20 -126 -45 -65 -25 -128 -44 -140 -43 -12 1 -53 -9 -91 -21 -66
-22 -70 -23 -104 -7 -42 21 -48 16 -28 -22 26 -51 59 -48 246 19 91 33 180 67
199 75 18 8 36 12 39 9 8 -7 6 -8 -93 -44 -49 -18 -136 -51 -193 -72 -128 -49
-184 -51 -210 -7 -9 15 -19 28 -22 28 -3 0 1 -34 9 -76 12 -66 17 -75 33 -71
16 5 17 3 7 -10 -10 -12 -10 -16 2 -24 11 -7 11 -9 -4 -9 -14 0 -18 -6 -15
-27 2 -24 16 -35 83 -70 44 -23 91 -43 105 -45 21 -3 203 62 258 92 9 5 37 15
62 23 25 8 62 22 83 31 20 9 37 13 37 9 0 -5 -41 -24 -91 -43 -67 -26 -93 -41
-100 -57 -5 -13 -11 -23 -13 -23 -3 0 -3 7 0 15 8 21 4 20 -118 -26 l-108 -42
-92 43 c-51 23 -98 46 -104 51 -6 5 -14 39 -17 75 -4 37 -9 69 -11 71 -3 3
-32 5 -65 6 -50 0 -62 3 -67 19 -4 15 -12 17 -40 12 -30 -5 -35 -3 -44 20 -9
24 -14 26 -44 20 -32 -5 -36 -4 -42 20 -7 31 -11 31 -91 6 -35 -11 -70 -17
-78 -14 -20 8 -19 -9 5 -56 11 -22 20 -47 20 -56 0 -27 -40 -74 -77 -89 -31
-13 -38 -13 -52 -1 -22 19 -65 40 -58 29 4 -5 -10 -17 -29 -26 -49 -24 -65
-21 -26 4 17 12 32 27 32 35 0 22 25 17 60 -12 22 -19 34 -24 42 -16 6 6 17 8
25 5 17 -7 65 36 59 53 -3 7 0 14 7 17 8 2 3 21 -17 57 -27 49 -28 58 -23 129
6 85 -6 208 -30 291 -32 113 -128 262 -204 315 -27 19 -39 43 -53 106 -7 34
-63 64 -101 55 -23 -6 -26 -9 -14 -17 10 -8 9 -9 -8 -4 -19 5 -23 1 -29 -32
-9 -51 -20 -70 -44 -76 -11 -3 -18 -1 -14 4 7 11 -27 12 -45 0 -7 -5 -10 -14
-6 -20 5 -9 10 -9 21 0 13 11 14 9 3 -13 -8 -18 -17 -24 -30 -21 -10 3 -19 12
-19 19 0 8 -7 14 -15 14 -11 0 -14 -7 -9 -24 8 -33 -29 -71 -54 -57 -13 7 -20
5 -29 -12 l-12 -22 -1 22 c0 16 -5 20 -21 16 -11 -3 -18 -11 -15 -18 3 -8 -2
-11 -14 -8 -14 4 -24 -5 -39 -36 -24 -45 -26 -72 -10 -88 9 -9 8 -32 -1 -92
-23 -141 20 -310 107 -425 48 -62 62 -68 65 -24 1 18 4 2 7 -37 6 -66 8 -70
41 -92 19 -12 40 -26 45 -30 6 -5 30 -9 54 -10 42 -3 43 -2 36 24 -6 27 -6 27
14 9 27 -25 26 -34 -3 -42 -15 -3 -26 -14 -28 -27 -2 -18 -19 -27 -82 -48 -43
-14 -84 -33 -91 -42 -27 -37 -105 -41 -105 -5 0 7 5 6 15 -2 24 -20 42 2 29
37 -12 35 -36 36 -45 3 -7 -24 -7 -23 -8 6 -1 26 4 34 29 44 16 7 39 10 50 7
18 -5 97 14 121 29 5 3 -10 19 -35 35 -31 19 -46 36 -46 50 0 11 -20 43 -43
70 -113 129 -171 338 -136 488 7 31 6 52 -2 76 -10 28 -10 41 3 74 9 23 13 41
10 41 -29 -1 -124 -40 -139 -57 -10 -11 -30 -24 -45 -27 -21 -5 -31 0 -47 20
-29 37 -26 94 5 94 19 0 34 40 35 93 1 38 2 37 10 -17 5 -33 14 -63 20 -67 6
-3 47 5 91 20 l79 26 18 -24 c14 -19 24 -22 48 -17 25 6 29 11 25 31 -2 14 -1
36 2 50 7 29 40 34 67 9 11 -10 25 -13 38 -9 19 6 21 15 23 113 l2 107 5 -101
6 -102 44 17 c38 14 46 22 55 55 13 45 46 62 100 52 49 -9 65 -26 80 -84 11
-41 25 -61 62 -96 l49 -44 36 67 c20 36 32 68 27 69 -17 7 -7 40 14 46 18 4
20 8 10 18 -18 18 -15 36 8 43 15 5 19 12 14 30 -4 17 0 26 15 35 12 6 21 20
21 31 0 11 11 24 25 31 14 6 25 17 25 25 0 7 11 19 25 25 14 6 25 16 25 22 0
6 24 22 54 35 30 13 56 30 59 40 2 10 29 23 68 35 35 11 75 24 89 29 14 6 34
12 45 14 11 2 55 15 99 29 43 15 88 27 100 27 19 0 21 4 18 37 -2 20 3 58 12
84 12 35 17 93 18 234 l2 187 6 -206 c3 -148 9 -210 18 -222z m92 373 c0 -31
-16 -41 -26 -15 -8 19 2 45 16 45 5 0 10 -13 10 -30z m132 19 c6 -17 88 -20
88 -4 0 8 8 11 20 8 21 -5 30 -53 10 -53 -5 0 -10 6 -10 13 0 8 -3 8 -8 1 -9
-13 -160 -15 -168 -2 -4 6 -14 1 -25 -13 -15 -19 -19 -20 -19 -7 0 9 -3 23 -6
31 -4 12 4 15 45 13 36 -1 51 2 51 11 0 16 17 17 22 2z m2460 -48 c-5 -3 -12
-13 -15 -21 -3 -9 -6 -4 -6 12 -1 21 3 26 15 21 9 -3 11 -9 6 -12z m-3082 -37
c0 -17 -6 -24 -20 -24 -14 0 -20 7 -20 23 0 13 3 26 6 30 12 12 34 -6 34 -29z
m1636 26 c6 -6 43 -11 82 -12 62 -1 72 -4 72 -20 0 -19 -25 -25 -35 -8 -5 8
-11 8 -20 0 -10 -8 -16 -7 -24 7 -10 17 -10 17 -11 1 0 -10 -4 -18 -10 -18 -5
0 -10 8 -10 18 -1 15 -2 15 -15 -2 -10 -14 -15 -15 -15 -6 0 11 -3 11 -12 2
-7 -7 -20 -12 -30 -12 -13 0 -18 8 -18 30 0 22 5 30 18 30 10 0 23 -5 28 -10z
m224 -20 c0 -20 -5 -30 -15 -30 -10 0 -15 10 -15 30 0 20 5 30 15 30 10 0 15
-10 15 -30z m110 0 c0 -27 -3 -29 -35 -28 -24 1 -35 6 -36 17 -1 13 -2 13 -6
-1 -6 -25 -23 -22 -23 3 0 19 4 21 30 16 20 -4 34 -2 42 8 20 22 28 18 28 -15z
m-1860 -15 c0 -8 -4 -15 -10 -15 -5 0 -10 6 -10 13 0 7 -3 8 -8 2 -4 -6 -22
-12 -40 -14 -28 -2 -33 0 -30 16 7 35 98 34 98 -2z m45 15 c4 -7 12 -7 24 0
22 11 31 4 31 -27 0 -16 -6 -23 -20 -23 -11 0 -20 6 -20 14 0 9 -9 13 -25 11
-19 -2 -25 2 -25 16 0 20 24 26 35 9z m-64 -88 c48 3 54 1 54 -17 0 -16 -5
-19 -25 -16 -14 1 -28 8 -32 15 -6 8 -8 8 -8 -1 0 -8 -14 -13 -35 -13 -26 0
-35 4 -35 17 0 15 -1 15 -18 0 -25 -23 -32 -21 -32 9 0 23 3 26 25 22 14 -3
25 -1 25 6 0 6 7 3 14 -7 10 -13 25 -17 67 -15z m1523 22 c9 -3 16 -14 16 -23
0 -10 3 -12 8 -5 4 6 36 11 71 11 42 1 67 6 72 15 7 10 9 10 9 -2 0 -12 11
-15 50 -14 53 3 65 -5 55 -36 -8 -24 -30 -26 -39 -4 -3 8 -10 12 -16 9 -5 -3
-10 0 -11 7 0 10 -2 10 -6 1 -2 -7 -13 -13 -23 -13 -10 0 -21 6 -23 13 -4 9
-8 8 -16 -3 -10 -13 -12 -13 -21 0 -5 8 -10 10 -10 4 0 -8 -24 -12 -70 -12
l-70 0 0 29 c0 31 1 32 24 23z m1453 -46 c-2 -13 -4 -5 -4 17 -1 22 1 32 4 23
2 -10 2 -28 0 -40z m-1714 15 c19 -17 20 -17 14 0 -5 12 -1 17 13 17 16 0 20
-7 20 -30 0 -23 -4 -30 -20 -30 -11 0 -20 5 -20 11 0 6 -7 4 -15 -5 -28 -27
-69 10 -44 40 15 19 28 18 52 -3z m-1587 -78 c-6 -17 9 -21 19 -5 4 6 11 7 18
3 16 -10 58 -10 63 -1 3 5 11 5 17 1 13 -8 19 -9 59 -11 20 -2 26 -6 22 -17
-8 -19 -74 -21 -75 -2 0 10 -2 10 -6 0 -2 -7 -20 -13 -39 -13 -20 0 -34 5 -35
13 0 10 -2 10 -6 0 -2 -7 -17 -13 -32 -13 -23 0 -27 4 -25 28 2 33 1 32 15 32
6 0 9 -7 5 -15z m1560 -11 c-5 -13 2 -14 49 -10 52 5 55 4 55 -18 0 -21 -4
-22 -65 -22 -47 1 -64 4 -61 13 3 7 1 15 -5 19 -6 4 -6 11 2 20 15 19 33 18
25 -2z m134 -13 c0 -17 -4 -33 -10 -36 -6 -4 -10 8 -10 29 0 20 5 36 10 36 6
0 10 -13 10 -29z m1639 -16 c0 -5 -4 -3 -9 5 -5 8 -9 22 -9 30 0 16 17 -16 18
-35z m-2992 -12 c-3 -10 -5 -4 -5 12 0 17 2 24 5 18 2 -7 2 -21 0 -30z m-341
-45 c-1 -7 -7 -22 -14 -33 -10 -18 -11 -17 -12 13 0 21 5 32 14 32 8 0 13 -6
12 -12z m214 -29 c0 -14 -7 -18 -30 -16 -19 1 -30 8 -30 17 0 12 -2 13 -9 1
-5 -7 -14 -10 -20 -7 -6 4 -11 3 -11 -1 0 -16 -60 -14 -66 2 -6 14 -8 13 -20
-2 -12 -17 -13 -16 -14 5 0 22 2 22 100 21 90 -1 100 -3 100 -20z m3084 -45
c10 -26 7 -34 -13 -34 -20 0 -35 25 -25 41 9 14 31 10 38 -7z m131 -14 c3 -5
1 -10 -4 -10 -6 0 -11 5 -11 10 0 6 2 10 4 10 3 0 8 -4 11 -10z m-3088 -62
c-2 -13 -4 -3 -4 22 0 25 2 35 4 23 2 -13 2 -33 0 -45z m2886 30 c6 -19 -21
-68 -38 -68 -8 0 -22 11 -31 25 -13 20 -14 28 -4 40 15 18 67 20 73 3z m248
-15 c13 -17 13 -17 -6 -3 -11 8 -22 16 -24 17 -2 2 0 3 6 3 6 0 17 -8 24 -17z
m537 -59 c36 -18 39 -29 15 -56 -24 -26 -37 -22 -55 16 -12 25 -14 36 -5 45
13 13 8 14 45 -5z m-4703 -14 c3 -5 15 -6 28 -1 14 6 30 5 41 -1 10 -6 31 -7
47 -4 33 6 51 -16 30 -37 -10 -9 -15 -8 -25 5 -10 14 -15 15 -25 5 -9 -9 -14
-9 -20 2 -7 10 -10 10 -16 1 -6 -9 -10 -9 -16 1 -8 12 -10 12 -18 0 -5 -7 -13
-11 -19 -7 -6 3 -13 2 -17 -3 -10 -18 -35 0 -35 25 0 17 6 24 19 24 11 0 22
-4 26 -10z m782 -47 c-3 -10 -5 -2 -5 17 0 19 2 27 5 18 2 -10 2 -26 0 -35z
m-1177 -45 c0 -7 -7 -22 -15 -32 -14 -19 -15 -18 -15 12 0 22 5 32 15 32 8 0
15 -6 15 -12z m31 -32 c6 -6 9 -3 9 7 0 9 7 17 15 17 8 0 15 -8 15 -18 0 -14
-8 -18 -30 -18 -27 0 -30 3 -29 30 1 21 3 25 6 11 3 -11 9 -24 14 -29z m349
14 c0 -20 -5 -30 -15 -30 -10 0 -15 10 -15 30 0 20 5 30 15 30 10 0 15 -10 15
-30z m108 3 c-3 -24 -8 -28 -35 -28 -18 -1 -33 3 -33 8 0 5 -7 4 -15 -3 -13
-10 -15 -9 -15 9 0 14 6 21 20 21 11 0 20 -6 21 -12 0 -10 2 -10 6 0 2 6 11
12 19 12 8 0 14 5 14 10 0 6 5 10 11 10 6 0 9 -12 7 -27z m-288 -18 c0 -32
-20 -43 -37 -20 -7 11 -13 15 -13 9 0 -5 -5 -2 -10 6 -6 9 -13 11 -17 5 -14
-17 -33 -16 -33 3 0 15 9 18 55 20 52 1 55 0 55 -23z m-200 -60 c0 -12 7 -14
26 -9 17 4 29 2 35 -7 7 -11 9 -9 9 8 0 21 2 21 38 9 37 -13 57 -46 28 -46 -9
0 -17 8 -17 18 -1 14 -2 14 -6 1 -3 -12 -19 -15 -73 -16 l-70 0 0 28 c0 19 5
29 15 29 8 0 15 -7 15 -15z m381 -12 c1 -17 3 -21 6 -10 7 26 43 22 43 -5 0
-19 -2 -20 -11 -8 -8 11 -12 12 -16 3 -2 -7 -16 -13 -29 -13 -20 0 -24 5 -24
30 0 40 29 42 31 3z m109 12 c0 -9 6 -12 15 -9 10 4 15 0 15 -15 0 -18 -6 -21
-40 -21 -44 0 -51 13 -22 41 21 22 32 23 32 4z m65 1 c18 -17 94 -14 106 5 7
11 9 11 9 -3 0 -19 28 -14 42 6 4 6 8 -3 8 -20 l0 -32 -77 1 c-46 0 -81 4 -85
11 -5 8 -8 7 -8 -1 0 -7 -4 -13 -10 -13 -5 0 -10 14 -10 30 0 33 5 37 25 16z
m-488 -193 c-2 -16 -4 -3 -4 27 0 30 2 43 4 28 2 -16 2 -40 0 -55z m3594 14
c-1 -4 -1 -16 -1 -27 0 -11 -4 -20 -10 -20 -5 0 -10 14 -10 31 0 17 5 29 11
27 6 -2 10 -7 10 -11z m306 -34 c-3 -10 -5 -2 -5 17 0 19 2 27 5 18 2 -10 2
-26 0 -35z m-114 10 c5 14 15 16 49 12 48 -6 52 -9 45 -28 -6 -17 -67 -11 -67
7 0 7 -3 7 -8 -2 -7 -11 -31 -13 -104 -11 -10 0 -18 4 -18 9 0 5 -14 2 -31 -7
-33 -17 -56 -7 -46 20 6 17 124 21 145 4 9 -7 12 -4 13 9 1 14 3 12 8 -6 6
-21 8 -22 14 -7z m-3786 -70 c-3 -10 -5 -2 -5 17 0 19 2 27 5 18 2 -10 2 -26
0 -35z m587 11 c10 -4 16 -18 16 -35 0 -22 -5 -29 -20 -29 -11 0 -20 4 -20 10
0 5 7 7 16 3 12 -4 15 0 12 17 -4 28 -28 40 -28 14 0 -9 -3 -15 -6 -11 -7 6 2
37 10 37 2 0 11 -3 20 -6z m3996 -8 c0 -22 -11 -46 -21 -46 -10 0 -12 43 -2
53 11 12 23 8 23 -7z m30 1 c0 -9 15 -12 50 -10 32 2 50 -1 50 -8 0 -8 4 -8
13 -1 6 5 28 9 47 8 28 -1 35 -6 35 -21 0 -13 -7 -20 -19 -20 -10 0 -24 -8
-30 -18 -9 -15 -7 -21 9 -33 17 -13 20 -13 27 3 3 10 7 12 7 6 1 -8 14 -13 31
-13 22 0 30 5 30 18 1 16 1 16 14 0 14 -20 36 -24 36 -8 0 6 5 10 11 10 6 0 9
-12 7 -27 -3 -28 -3 -28 -80 -28 -54 0 -78 3 -78 12 0 9 -7 8 -27 -2 -32 -17
-113 -12 -125 7 -6 10 -8 10 -8 1 0 -7 -4 -13 -8 -13 -5 0 -9 7 -9 15 0 10 11
15 35 15 21 0 40 7 48 18 12 15 13 14 14 -13 1 -26 2 -28 11 -12 8 14 14 16
25 6 11 -9 14 -7 14 15 0 14 -4 26 -10 26 -5 0 -9 6 -7 12 1 10 -16 12 -65 10
l-68 -3 0 31 c0 16 5 30 10 30 6 0 10 -6 10 -13z m-1010 -12 c0 -11 8 -13 30
-8 19 3 30 1 30 -6 0 -6 5 -11 11 -11 5 0 7 5 4 10 -3 6 3 10 14 10 13 0 21
-6 21 -18 0 -15 -10 -17 -70 -18 l-70 0 0 28 c0 18 5 28 15 28 8 0 15 -7 15
-15z m-2973 -17 c-3 -8 -6 -5 -6 6 -1 11 2 17 5 13 3 -3 4 -12 1 -19z m13 -41
c0 -19 -8 -26 -42 -36 -24 -7 -58 -19 -77 -28 -25 -11 -39 -12 -55 -5 -20 10
-20 11 7 11 15 1 47 10 71 21 24 12 47 20 52 19 23 -4 34 3 34 21 0 11 2 20 5
20 3 0 5 -11 5 -23z m131 -101 l31 -41 -31 35 c-17 19 -48 50 -69 68 l-37 34
38 -28 c21 -15 51 -45 68 -68z m2820 40 c8 -9 14 13 10 37 0 4 4 7 9 7 6 0 10
-7 10 -15 0 -16 29 -10 42 9 4 6 8 -3 8 -21 0 -31 -1 -31 -50 -31 -50 -1 -50
-1 -49 31 1 21 3 25 6 12 3 -11 9 -24 14 -29z m989 13 c0 -38 -24 -35 -28 4
-2 19 1 27 12 27 11 0 16 -10 16 -31z m1066 9 c-3 -13 -6 -26 -6 -30 0 -5 -4
-8 -10 -8 -5 0 -10 14 -10 30 0 21 5 30 16 30 12 0 15 -6 10 -22z m-2734 1 c5
-16 158 -15 169 2 7 12 9 11 9 -1 0 -11 13 -15 55 -15 37 0 55 4 55 13 0 6 5
12 10 12 6 0 10 -13 10 -30 0 -32 -7 -35 -65 -31 -16 2 -33 8 -37 14 -6 9 -8
8 -8 -1 0 -16 -100 -13 -113 3 -6 7 -10 6 -14 -2 -3 -8 -24 -13 -54 -13 -48 0
-49 1 -49 30 0 29 24 44 32 19z m2878 -19 c0 -23 -28 -27 -36 -5 -4 8 -10 15
-15 15 -4 0 -6 -6 -3 -13 6 -17 -54 -21 -73 -5 -23 18 -4 26 62 27 58 0 65 -2
65 -19z m-5124 -45 c-11 -8 -26 -15 -33 -15 -7 0 -13 -7 -13 -15 0 -9 -9 -25
-20 -37 -24 -26 -26 -18 -5 22 8 16 28 36 43 44 35 19 53 20 28 1z m4984 -27
c0 -17 3 -19 9 -9 6 9 18 11 33 8 15 -4 33 0 46 9 20 14 22 14 22 0 0 -10 6
-13 16 -9 9 3 20 0 25 -8 6 -11 9 -8 9 9 0 22 1 22 25 6 24 -15 25 -15 25 2 0
15 2 16 9 5 12 -18 61 -21 61 -4 0 19 18 16 22 -4 3 -16 4 -16 20 0 23 23 28
21 28 -11 l0 -29 -152 0 c-101 0 -155 4 -160 11 -5 8 -8 7 -8 -1 0 -8 -13 -13
-30 -13 -27 0 -30 3 -30 30 0 20 5 30 15 30 9 0 15 -9 15 -22z m-5307 5 c-7
-2 -19 -2 -25 0 -7 3 -2 5 12 5 14 0 19 -2 13 -5z m64 1 c-3 -3 -12 -4 -19 -1
-8 3 -5 6 6 6 11 1 17 -2 13 -5z m2713 -24 c0 -36 -27 -52 -45 -27 -15 20 -25
22 -25 4 0 -10 -22 -13 -85 -13 l-85 0 0 28 c0 21 5 28 20 28 12 0 20 -7 20
-17 0 -12 3 -14 11 -6 6 6 40 8 85 6 61 -4 75 -2 80 11 10 26 24 18 24 -14z
m-2670 10 c8 -5 11 -10 5 -10 -5 0 -17 5 -25 10 -8 5 -10 10 -5 10 6 0 17 -5
25 -10z m4257 -82 c-2 -18 -4 -6 -4 27 0 33 2 48 4 33 2 -15 2 -42 0 -60z
m-4171 20 c4 -7 -9 1 -29 16 -20 16 -37 30 -37 33 0 7 58 -36 66 -49z m172 28
c-16 -8 -33 -18 -39 -22 -8 -4 -8 0 0 15 8 13 21 21 39 21 l27 0 -27 -14z
m162 -81 c16 -33 31 -71 34 -85 4 -19 2 -18 -7 5 -6 17 -28 64 -49 105 -21 41
-30 66 -22 55 9 -11 29 -47 44 -80z m-227 48 c-7 -2 -19 -2 -25 0 -7 3 -2 5
12 5 14 0 19 -2 13 -5z m2977 -23 c0 -5 -4 -10 -10 -10 -5 0 -10 5 -10 10 0 6
5 10 10 10 6 0 10 -4 10 -10z m-270 -34 l0 -34 -50 0 c-50 -1 -50 -1 -49 31 1
24 3 26 6 10 4 -23 23 -32 23 -12 0 6 7 9 15 5 9 -3 23 3 33 13 23 26 22 26
22 -13z m-370 20 c0 -3 -4 -8 -10 -11 -5 -3 -10 -1 -10 4 0 6 5 11 10 11 6 0
10 -2 10 -4z m1727 -58 c-3 -8 -6 -5 -6 6 -1 11 2 17 5 13 3 -3 4 -12 1 -19z
m-3981 -6 c-3 -5 4 -33 15 -62 11 -29 18 -57 17 -62 -2 -6 -12 16 -22 47 -13
41 -24 59 -39 63 -20 5 -20 6 -1 13 26 10 36 11 30 1z m54 -27 c0 -5 -5 -3
-10 5 -5 8 -10 20 -10 25 0 6 5 3 10 -5 5 -8 10 -19 10 -25z m-332 11 c64 -33
122 -137 122 -216 0 -18 4 -29 10 -25 6 4 10 -6 10 -22 0 -18 -3 -23 -8 -16
-6 9 -14 0 -26 -28 -23 -53 -71 -76 -121 -59 -65 21 -119 96 -139 192 -6 25
-9 27 -26 16 -15 -10 -22 -10 -32 0 -11 11 -10 12 2 8 23 -9 41 36 26 66 -7
13 -19 23 -27 22 -8 -1 -15 7 -15 17 0 11 3 19 6 19 14 0 50 -33 50 -46 0 -24
17 -16 24 12 16 63 83 92 144 60z m215 -3 c-7 -2 -19 -2 -25 0 -7 3 -2 5 12 5
14 0 19 -2 13 -5z m2634 -15 c4 -7 19 -13 33 -13 15 0 26 -6 28 -17 3 -14 -6
-17 -52 -17 -40 0 -56 5 -60 16 -12 31 33 58 51 31z m123 -3 c0 -8 6 -12 13
-9 8 3 13 -3 13 -16 0 -17 -7 -20 -38 -20 -31 0 -38 4 -38 20 0 22 15 27 23 8
3 -7 6 -3 6 10 1 24 21 31 21 7z m105 -26 c-3 -8 -19 -16 -35 -17 -25 -2 -30
2 -30 19 0 16 5 20 20 16 11 -3 23 -1 26 5 9 14 26 -6 19 -23z m1309 -3 c24
-14 61 -44 82 -66 37 -39 40 -40 104 -40 78 0 93 -8 88 -46 -3 -27 -6 -29 -50
-32 -27 -2 -48 -7 -48 -11 0 -5 7 -26 16 -46 30 -74 54 -208 54 -313 0 -80 4
-113 19 -145 11 -24 22 -56 25 -72 4 -17 3 -23 0 -15 -37 88 -46 104 -53 88
-3 -10 -6 51 -6 135 0 115 -5 169 -19 222 -36 139 -108 258 -189 313 -46 32
-94 51 -83 33 5 -7 -3 -7 -26 1 -24 9 -33 8 -36 0 -2 -8 -8 -7 -19 3 -35 36
-161 -20 -225 -99 -90 -113 -128 -228 -135 -412 -8 -179 11 -284 73 -407 35
-69 79 -123 127 -158 22 -16 34 -29 26 -29 -22 0 -135 123 -162 176 -96 190
-107 480 -26 686 48 123 132 218 222 250 73 26 181 19 241 -16z m-4633 -22
c-5 -16 -10 -21 -10 -12 -1 18 10 51 15 45 2 -1 -1 -16 -5 -33z m3452 -117
c93 -15 127 -29 133 -53 3 -13 2 -129 -4 -256 l-10 -233 1 250 2 250 -27 0
c-14 -1 -24 3 -21 8 6 10 -22 3 -75 -19 -31 -12 -33 -17 -30 -51 2 -21 -1 -39
-7 -40 -5 -1 -9 9 -8 23 1 17 -3 24 -15 24 -15 0 -15 2 -2 10 30 19 -13 10
-100 -21 -47 -17 -109 -38 -138 -46 -31 -10 -59 -25 -67 -37 -15 -24 -30 -552
-16 -574 4 -7 21 -20 36 -28 33 -17 89 -4 99 23 4 11 14 13 31 9 16 -4 41 1
67 14 49 23 59 25 33 6 -18 -13 -17 -14 8 -31 32 -21 42 -47 27 -75 -8 -15
-21 -20 -56 -20 -38 0 -50 5 -80 35 -28 28 -40 34 -57 28 -30 -10 -87 -7 -100
6 -6 6 -20 11 -32 11 -11 0 -31 7 -44 16 l-23 17 4 286 c3 184 8 293 16 307 6
12 35 28 68 40 66 22 73 35 76 132 l2 67 3 -60 c2 -33 8 -70 14 -81 12 -24 9
-25 172 31 l77 27 2 81 2 82 3 -76 4 -77 32 -5z m-2844 93 c0 -10 -3 -8 -9 5
-12 27 -12 43 0 25 5 -8 9 -22 9 -30z m119 -15 c0 -16 -2 -15 -8 5 -11 34 -11
60 0 35 5 -11 8 -29 8 -40z m3788 9 c-5 -13 -10 -14 -18 -6 -6 6 -8 18 -4 28
5 13 10 14 18 6 6 -6 8 -18 4 -28z m-1436 -4 c0 -5 -4 -10 -10 -10 -5 0 -10 5
-10 10 0 6 5 10 10 10 6 0 10 -4 10 -10z m-3066 -16 c3 -8 2 -12 -4 -9 -6 3
-10 10 -10 16 0 14 7 11 14 -7z m5583 -8 c4 -8 19 -16 32 -18 18 -2 28 -13 38
-44 9 -26 28 -53 53 -73 80 -64 129 -185 137 -336 3 -58 1 -116 -5 -138 -8
-29 -7 -46 3 -72 13 -29 13 -39 -2 -79 -14 -38 -22 -46 -43 -46 -17 0 -34 -12
-53 -35 -15 -19 -38 -40 -50 -46 -14 -7 -9 2 16 26 20 21 37 41 37 46 0 20
-24 7 -67 -36 -34 -35 -40 -45 -26 -46 14 0 12 -3 -7 -11 -32 -12 -158 -5
-173 11 -9 10 2 11 49 6 68 -8 100 3 146 52 19 19 26 37 24 56 -2 15 1 27 5
27 5 0 9 -6 9 -14 0 -13 20 -26 41 -26 5 0 10 8 10 18 1 16 2 16 6 0 3 -11 14
-18 28 -18 33 0 55 66 37 112 -8 22 -8 45 0 86 23 123 -11 298 -75 394 -29 44
-107 101 -107 79 0 -6 8 -15 19 -20 51 -28 112 -168 126 -289 10 -89 -3 -222
-22 -222 -8 0 -12 -4 -9 -8 3 -5 -1 -9 -9 -9 -20 0 -19 14 3 26 15 8 17 26 16
148 0 118 -4 146 -22 194 -28 71 -74 136 -113 157 -35 21 -36 28 -5 39 22 7
23 10 12 43 -9 28 -17 36 -40 38 -28 4 -29 3 -23 -33 3 -21 3 -35 0 -31 -3 3
-12 1 -20 -5 -7 -6 -13 -10 -14 -8 -8 43 -6 59 7 59 8 0 14 5 14 11 0 6 -8 9
-17 7 -11 -2 -18 -12 -17 -25 0 -12 -3 -20 -8 -17 -4 3 -8 0 -8 -7 0 -7 -2
-10 -5 -7 -13 12 37 98 57 98 4 0 11 -6 15 -14z m-5016 -26 c6 0 7 -4 4 -10
-12 -19 -25 -10 -24 18 1 16 3 20 6 10 2 -10 9 -18 14 -18z m156 -42 c-2 -13
-4 -3 -4 22 0 25 2 35 4 23 2 -13 2 -33 0 -45z m3954 45 c13 -16 12 -17 -3 -4
-10 7 -18 15 -18 17 0 8 8 3 21 -13z m-190 0 c27 -5 29 -8 14 -13 -11 -4 -36
-3 -56 2 -83 22 -171 -36 -227 -149 -47 -94 -57 -146 -57 -288 1 -152 22 -237
81 -326 51 -79 92 -104 171 -105 35 0 66 -4 70 -7 16 -17 -115 -6 -150 12 -36
18 -36 18 -51 -3 -15 -20 -15 -20 -9 12 3 19 1 32 -5 32 -19 0 -101 183 -112
250 -14 94 -12 215 6 295 9 39 16 86 16 105 -1 26 1 30 7 16 6 -16 8 -17 13
-4 4 9 1 21 -5 27 -8 8 -7 11 5 11 9 0 27 15 39 33 62 88 145 121 250 100z
m167 -37 c4 -20 -16 -48 -30 -40 -5 3 -1 12 9 19 15 11 16 15 3 31 -13 15 -13
17 0 12 8 -2 16 -12 18 -22z m-87 -3 c13 -16 12 -17 -3 -4 -10 7 -18 15 -18
17 0 8 8 3 21 -13z m137 -8 c-3 -3 -9 2 -12 12 -6 14 -5 15 5 6 7 -7 10 -15 7
-18z m-177 -2 c13 -16 12 -17 -3 -4 -10 7 -18 15 -18 17 0 8 8 3 21 -13z
m-4066 -74 c8 -33 -9 -69 -32 -69 -19 0 -53 28 -53 44 0 6 7 0 16 -12 8 -12
22 -22 31 -22 12 0 9 7 -11 25 -29 27 -32 42 -14 80 l11 25 23 -21 c13 -12 26
-34 29 -50z m4044 34 c46 -38 96 -130 116 -215 16 -70 19 -216 5 -258 -5 -15
-6 15 -3 70 9 154 -26 282 -98 364 -51 58 -101 76 -147 52 -27 -14 -32 -14
-32 -2 0 36 109 29 159 -11z m1044 -2 c20 2 39 0 43 -4 4 -4 -12 -7 -36 -7
-38 0 -41 -2 -29 -17 11 -13 9 -13 -15 3 -22 13 -31 15 -34 6 -6 -19 -34 -44
-41 -36 -3 4 0 9 7 11 6 3 12 12 12 20 0 12 -9 14 -39 11 -22 -2 -37 0 -35 4
3 5 30 8 60 8 36 0 54 4 54 13 0 9 2 9 9 -1 5 -9 22 -13 44 -11z m-2063 -1
c-8 -5 -19 -10 -25 -10 -5 0 -3 5 5 10 8 5 20 10 25 10 6 0 3 -5 -5 -10z m66
-28 c1 -7 0 -8 -3 -2 -9 18 -25 10 -20 -10 3 -11 1 -20 -3 -20 -14 0 -21 17
-14 35 7 18 36 17 40 -3z m1093 -16 c-3 -3 -11 5 -18 17 -13 21 -12 21 5 5 10
-10 16 -20 13 -22z m-889 2 c20 -14 30 -31 30 -48 0 -36 -17 -50 -62 -50 -31
0 -46 8 -79 40 -25 24 -39 46 -36 54 5 13 22 17 100 24 10 1 31 -8 47 -20z
m1574 -15 c-62 -61 -98 -163 -114 -318 l-9 -80 4 96 c4 96 29 192 63 249 20
33 74 90 84 90 5 0 -8 -16 -28 -37z m-1065 -5 c-30 -44 -29 -43 -29 -31 0 11
38 63 46 63 3 0 -5 -15 -17 -32z m29 -2 c-13 -19 -24 -33 -26 -31 -5 4 37 65
44 65 2 0 -6 -15 -18 -34z m-3801 -8 c-3 -7 -5 -2 -5 12 0 14 2 19 5 13 2 -7
2 -19 0 -25z m2799 6 c-38 -13 -71 -22 -73 -20 -5 5 107 44 127 44 8 0 -16
-10 -54 -24z m-2569 -31 c-3 -10 -5 -2 -5 17 0 19 2 27 5 18 2 -10 2 -26 0
-35z m-753 15 c23 -32 21 -85 -4 -98 -40 -21 -80 27 -71 85 6 40 51 47 75 13z
m5631 -29 c22 -41 11 -36 -14 7 -12 19 -16 32 -11 29 6 -3 17 -19 25 -36z
m-3860 -4 c-16 -8 -39 -14 -50 -14 -20 0 -20 0 -1 14 11 8 34 15 50 14 l31 -1
-30 -13z m1425 5 c-8 -5 -19 -10 -25 -10 -5 0 -3 5 5 10 8 5 20 10 25 10 6 0
3 -5 -5 -10z m2405 -20 c0 -28 -20 -38 -29 -15 -3 9 -2 13 4 10 6 -3 10 -1 10
4 0 6 -5 11 -11 11 -5 0 -7 5 -4 11 11 17 30 4 30 -21z m-5088 -2 c-3 -8 -6
-5 -6 6 -1 11 2 17 5 13 3 -3 4 -12 1 -19z m4858 13 c3 -6 18 -6 38 0 52 15
66 11 102 -28 45 -49 45 -61 0 -16 -31 31 -39 34 -82 31 -42 -3 -50 -7 -80
-46 -48 -63 -67 -138 -61 -241 6 -97 21 -141 68 -194 39 -45 88 -57 126 -32
15 9 24 12 20 7 -3 -6 0 -12 6 -15 22 -8 -60 -20 -88 -13 -14 4 -38 15 -52 24
-14 9 -33 17 -41 17 -10 0 -18 12 -21 35 -5 31 -7 33 -14 13 -17 -50 74 -177
135 -190 16 -3 32 -9 34 -14 3 -4 -9 -4 -26 1 -44 13 -95 55 -127 103 -23 36
-26 51 -24 104 2 53 -1 64 -18 73 -11 6 -20 16 -20 22 0 7 4 7 14 -1 12 -10
14 6 18 96 3 92 8 116 31 164 15 31 27 68 27 82 0 27 22 38 35 18z m-2227 -15
c-7 -8 -15 -12 -17 -11 -5 6 10 25 20 25 5 0 4 -6 -3 -14z m-3290 -32 c3 -31
2 -32 -73 -57 -42 -14 -89 -37 -106 -51 -17 -15 -39 -26 -49 -26 -25 0 -50 37
-50 76 0 26 6 34 30 44 16 7 40 10 52 7 13 -3 52 5 88 17 86 31 104 29 108
-10z m4959 14 c-3 -8 -6 -5 -6 6 -1 11 2 17 5 13 3 -3 4 -12 1 -19z m-1627 2
c0 -5 -7 -10 -15 -10 -8 0 -15 -7 -15 -15 0 -17 16 -20 23 -5 3 6 4 5 3 -2 -1
-7 -10 -14 -19 -16 -12 -3 -17 4 -17 21 0 13 3 27 7 30 10 11 33 8 33 -3z
m2370 -11 c0 -6 -4 -7 -10 -4 -5 3 -10 11 -10 16 0 6 5 7 10 4 6 -3 10 -11 10
-16z m-28 -55 c28 -41 48 -120 48 -187 0 -87 -49 -189 -102 -211 -32 -14 -72
-10 -63 5 3 4 12 6 20 2 32 -12 74 18 100 70 26 53 31 86 16 102 -6 6 -6 31 0
63 8 42 7 63 -6 102 -25 75 -90 121 -123 88 -9 -9 -12 -8 -12 4 0 45 83 19
122 -38z m-3893 52 c-11 -11 -251 -97 -256 -92 -4 3 -4 8 -2 9 12 10 191 77
197 73 4 -2 16 0 27 5 22 8 41 11 34 5z m1488 -78 c-2 -18 -4 -6 -4 27 0 33 2
48 4 33 2 -15 2 -42 0 -60z m256 57 c42 -29 49 -61 17 -90 -11 -10 -20 -13
-20 -7 0 6 6 12 13 15 6 2 9 7 6 11 -10 11 -38 -5 -33 -18 3 -7 -7 -13 -25
-14 -23 -2 -34 4 -47 22 -8 14 -25 28 -35 31 -15 5 -19 14 -17 33 3 24 7 27
40 27 20 0 40 3 44 8 11 11 16 9 57 -18z m887 -12 c-11 -17 -11 -17 -6 0 3 10
6 24 7 30 0 9 2 9 5 0 3 -7 0 -20 -6 -30z m-3572 14 c-9 -7 -46 -19 -83 -27
-64 -13 -67 -15 -63 -41 3 -16 1 -26 -4 -23 -13 8 -9 54 5 58 6 2 39 13 72 24
75 24 97 27 73 9z m2202 -7 c21 -11 45 -17 53 -14 19 7 39 -20 35 -48 -4 -28
-54 -39 -64 -13 -4 8 -28 25 -55 36 -34 15 -49 27 -49 40 0 25 30 25 80 -1z
m-2145 -20 c9 -16 13 -30 11 -30 -3 0 -12 14 -21 30 -9 17 -13 30 -11 30 3 0
12 -13 21 -30z m604 -10 c0 -10 -3 -8 -9 5 -12 27 -12 43 0 25 5 -8 9 -22 9
-30z m3121 36 c0 -2 -7 -7 -16 -10 -8 -3 -12 -2 -9 4 6 10 25 14 25 6z m37 -2
c-3 -3 -12 -4 -19 -1 -8 3 -5 6 6 6 11 1 17 -2 13 -5z m310 -26 c-3 -7 -5 -2
-5 12 0 14 2 19 5 13 2 -7 2 -19 0 -25z m-4347 -22 c-30 -49 -37 -46 -9 4 12
22 25 38 27 35 2 -2 -6 -20 -18 -39z m1440 25 c-8 -5 -26 -11 -40 -15 -21 -5
-20 -3 5 9 32 15 60 20 35 6z m2817 -23 c-3 -7 -5 -2 -5 12 0 14 2 19 5 13 2
-7 2 -19 0 -25z m-4076 -5 c-12 -20 -14 -14 -5 12 4 9 9 14 11 11 3 -2 0 -13
-6 -23z m1168 -14 c-26 -26 -24 -42 4 -33 45 14 51 14 22 0 -16 -8 -36 -15
-43 -16 -7 0 -15 -7 -18 -15 -4 -8 -10 -12 -16 -9 -5 4 -4 13 5 22 31 37 32
45 1 39 l-29 -6 31 14 c17 8 35 22 38 32 6 14 9 15 15 4 6 -8 2 -20 -10 -32z
m2642 32 c-38 -10 -64 -54 -69 -114 -6 -72 12 -124 51 -147 l31 -19 -29 3
c-46 5 -68 61 -63 157 6 96 24 129 71 128 29 -1 29 -2 8 -8z m228 -70 c1 -61
-5 -48 -12 24 -3 36 -2 52 3 40 5 -11 9 -40 9 -64z m911 44 c0 -5 -5 -3 -10 5
-5 8 -10 20 -10 25 0 6 5 3 10 -5 5 -8 10 -19 10 -25z m-4875 1 c8 -13 13 -31
9 -40 -7 -19 -20 -21 -30 -4 -4 7 -3 8 4 4 8 -5 12 2 12 18 0 16 -6 26 -15 26
-8 0 -15 -7 -15 -17 0 -9 -3 -14 -6 -10 -8 8 5 47 16 47 5 0 16 -11 25 -24z
m3492 -13 c-3 -10 -5 -4 -5 12 0 17 2 24 5 18 2 -7 2 -21 0 -30z m294 20 c13
-16 12 -17 -3 -4 -10 7 -18 15 -18 17 0 8 8 3 21 -13z m-2291 -3 c0 -5 -7 -10
-15 -10 -8 0 -15 5 -15 10 0 6 7 10 15 10 8 0 15 -4 15 -10z m2027 -22 c-3 -7
-5 -2 -5 12 0 14 2 19 5 13 2 -7 2 -19 0 -25z m326 -31 c-7 -12 -9 -7 -16 33
l-6 35 14 -30 c7 -16 11 -34 8 -38z m254 1 c-2 -13 -4 -3 -4 22 0 25 2 35 4
23 2 -13 2 -33 0 -45z m-2538 0 c17 -27 8 -22 -30 19 -27 29 -28 32 -7 17 14
-10 31 -27 37 -36z m3032 25 c-12 -20 -14 -14 -5 12 4 9 9 14 11 11 3 -2 0
-13 -6 -23z m258 -18 c0 -5 -4 -3 -9 5 -5 8 -9 22 -9 30 0 16 17 -16 18 -35z
m98 23 c-3 -8 -6 -5 -6 6 -1 11 2 17 5 13 3 -3 4 -12 1 -19z m-3767 2 c-8 -5
-19 -10 -25 -10 -5 0 -3 5 5 10 8 5 20 10 25 10 6 0 3 -5 -5 -10z m3436 -36
c-8 -21 -15 -34 -15 -28 -1 15 20 76 25 71 2 -2 -2 -21 -10 -43z m-4566 26 c0
-5 -2 -10 -4 -10 -3 0 -8 5 -11 10 -3 6 -1 10 4 10 6 0 11 -4 11 -10z m764 4
c23 -9 20 -23 -7 -35 -16 -7 -31 -7 -51 1 -23 9 -26 13 -16 25 13 16 47 20 74
9z m2948 -11 c8 -10 20 -32 26 -50 9 -27 7 -39 -11 -75 -36 -71 -58 -53 -59
47 -1 92 12 114 44 78z m-2762 -3 c-8 -5 -19 -10 -25 -10 -5 0 -3 5 5 10 8 5
20 10 25 10 6 0 3 -5 -5 -10z m1387 -32 c-3 -7 -5 -2 -5 12 0 14 2 19 5 13 2
-7 2 -19 0 -25z m2570 0 c-3 -7 -5 -2 -5 12 0 14 2 19 5 13 2 -7 2 -19 0 -25z
m-5224 5 c5 -3 13 -16 18 -30 8 -23 13 -24 47 -19 27 5 33 4 22 -3 -8 -6 -25
-11 -36 -11 -13 0 -24 -8 -27 -19 -2 -10 -14 -24 -26 -30 -31 -17 -71 25 -71
73 0 29 -3 34 -17 30 -10 -3 -7 1 7 10 22 13 58 13 83 -1z m130 10 c-7 -2 -19
-2 -25 0 -7 3 -2 5 12 5 14 0 19 -2 13 -5z m3957 -14 c0 -5 -4 -9 -10 -9 -5 0
-10 7 -10 16 0 8 5 12 10 9 6 -3 10 -10 10 -16z m187 -51 c-2 -13 -4 -3 -4 22
0 25 2 35 4 23 2 -13 2 -33 0 -45z m766 21 c28 -53 4 -139 -39 -139 -24 0 -33
105 -13 158 12 31 30 24 52 -19z m114 4 c-3 -10 -5 -4 -5 12 0 17 2 24 5 18 2
-7 2 -21 0 -30z m-4017 8 c-8 -5 -26 -11 -40 -15 -21 -5 -20 -3 5 9 32 15 60
20 35 6z m120 -6 c-14 -8 -32 -14 -40 -14 -8 0 -1 7 15 14 39 18 57 18 25 0z
m3867 -97 c-2 -24 -4 -7 -4 37 0 44 2 63 4 43 2 -21 2 -57 0 -80z m-3587 77
c0 -8 -2 -15 -4 -15 -2 0 -6 7 -10 15 -3 8 -1 15 4 15 6 0 10 -7 10 -15z
m3395 5 c4 -6 11 -8 16 -5 5 4 9 -9 9 -29 0 -19 3 -43 6 -53 6 -16 5 -16 -9 2
-10 12 -16 15 -17 7 0 -8 -9 -12 -22 -10 -19 2 -23 10 -24 43 -1 22 0 43 3 48
6 10 31 9 38 -3z m-3872 -7 c-7 -2 -13 -13 -13 -23 0 -10 6 -21 13 -23 7 -3 5
-6 -5 -6 -12 -1 -18 6 -18 22 0 26 8 37 24 36 6 0 5 -3 -1 -6z m4174 -55 c-2
-13 -4 -3 -4 22 0 25 2 35 4 23 2 -13 2 -33 0 -45z m-4067 42 c-8 -5 -22 -9
-30 -9 -10 0 -8 3 5 9 27 12 43 12 25 0z m3667 -37 c-3 -10 -5 -2 -5 17 0 19
2 27 5 18 2 -10 2 -26 0 -35z m-880 15 c-3 -8 -6 -5 -6 6 -1 11 2 17 5 13 3
-3 4 -12 1 -19z m133 -9 c0 -5 -4 -9 -10 -9 -5 0 -10 7 -10 16 0 8 5 12 10 9
6 -3 10 -10 10 -16z m-1443 -96 c-2 -21 -4 -4 -4 37 0 41 2 58 4 38 2 -21 2
-55 0 -75z m1580 50 c-3 -10 -5 -2 -5 17 0 19 2 27 5 18 2 -10 2 -26 0 -35z
m-2417 27 c0 -5 -5 -10 -11 -10 -5 0 -7 5 -4 10 3 6 8 10 11 10 2 0 4 -4 4
-10z m2557 -32 c-3 -7 -5 -2 -5 12 0 14 2 19 5 13 2 -7 2 -19 0 -25z m-610
-15 c-3 -10 -5 -4 -5 12 0 17 2 24 5 18 2 -7 2 -21 0 -30z m-1782 17 c3 -6 -1
-7 -9 -4 -18 7 -21 14 -7 14 6 0 13 -4 16 -10z m1812 -22 c-3 -7 -5 -2 -5 12
0 14 2 19 5 13 2 -7 2 -19 0 -25z m1370 0 c-3 -7 -5 -2 -5 12 0 14 2 19 5 13
2 -7 2 -19 0 -25z m-3427 18 c0 -2 -8 -10 -17 -17 -16 -13 -17 -12 -4 4 13 16
21 21 21 13z m295 -36 c10 -11 16 -20 13 -20 -3 0 -13 9 -23 20 -10 11 -16 20
-13 20 3 0 13 -9 23 -20z m2192 -2 c-3 -8 -6 -5 -6 6 -1 11 2 17 5 13 3 -3 4
-12 1 -19z m50 -10 c-3 -7 -5 -2 -5 12 0 14 2 19 5 13 2 -7 2 -19 0 -25z m580
10 c-3 -8 -6 -5 -6 6 -1 11 2 17 5 13 3 -3 4 -12 1 -19z m-490 -20 c-3 -7 -5
-2 -5 12 0 14 2 19 5 13 2 -7 2 -19 0 -25z m542 -18 c0 -10 -3 -8 -9 5 -12 27
-12 43 0 25 5 -8 9 -22 9 -30z m-744 -57 c-28 -62 -74 -116 -117 -139 -35 -18
-96 -17 -128 2 -18 11 -19 13 -5 9 11 -4 40 -9 65 -12 40 -5 50 -2 89 28 47
37 82 91 103 161 7 25 14 36 16 26 2 -10 -8 -44 -23 -75z m-2385 62 c28 -14
30 -20 31 -73 0 -55 1 -56 16 -34 30 43 96 21 88 -31 -13 -75 -105 -93 -105
-20 0 27 1 27 -51 7 -38 -16 -43 -16 -75 -1 -38 19 -43 33 -15 42 33 10 33 34
1 53 -33 21 -27 43 14 48 14 1 33 7 43 13 23 13 19 14 53 -4z m3447 -7 c-3 -8
-6 -5 -6 6 -1 11 2 17 5 13 3 -3 4 -12 1 -19z m-2097 -11 c0 -13 -6 -31 -12
-40 -13 -17 -157 -81 -165 -73 -2 2 28 16 67 31 81 31 100 46 100 81 0 13 2
24 5 24 3 0 5 -10 5 -23z m687 1 c-3 -8 -6 -5 -6 6 -1 11 2 17 5 13 3 -3 4
-12 1 -19z m230 16 c-3 -3 -12 -4 -19 -1 -8 3 -5 6 6 6 11 1 17 -2 13 -5z
m-2510 -26 c-3 -8 -6 -5 -6 6 -1 11 2 17 5 13 3 -3 4 -12 1 -19z m1548 9 c-11
-9 -15 -19 -10 -28 6 -10 5 -11 -4 -3 -15 14 -4 44 17 44 13 0 13 -2 -3 -13z
m1325 -49 c-7 -29 -22 -66 -32 -83 -11 -16 -17 -23 -14 -15 3 8 15 48 27 87
26 83 37 90 19 11z m-1107 20 c32 -23 35 -57 7 -83 -11 -10 -20 -13 -20 -7 0
7 5 12 10 12 6 0 10 7 10 15 0 9 -6 12 -15 9 -8 -4 -15 -12 -15 -19 0 -7 -11
-15 -25 -17 -18 -4 -35 5 -66 34 -50 47 -46 69 14 73 34 2 36 1 22 -15 -19
-21 -19 -64 0 -80 12 -10 15 -10 15 3 0 9 6 20 13 24 23 13 26 40 10 64 -18
24 -12 23 40 -13z m1931 14 c3 -5 -1 -9 -9 -9 -8 0 -15 4 -15 9 0 4 4 8 9 8 6
0 12 -4 15 -8z m66 -6 c0 -9 -30 -14 -35 -6 -4 6 3 10 14 10 12 0 21 -2 21 -4z
m-3320 -36 c0 -13 -5 -18 -15 -14 -8 4 -15 12 -15 20 0 8 7 14 15 14 8 0 15
-9 15 -20z m3193 0 c-3 -12 -8 -19 -11 -16 -5 6 5 36 12 36 2 0 2 -9 -1 -20z
m-3536 -12 c-3 -8 -6 -5 -6 6 -1 11 2 17 5 13 3 -3 4 -12 1 -19z m2181 -3 c-3
-3 -9 2 -12 12 -6 14 -5 15 5 6 7 -7 10 -15 7 -18z m1512 -6 c0 -10 -7 -19
-15 -19 -15 0 -21 31 -9 43 11 10 24 -3 24 -24z m-3240 -93 c-7 -22 -18 -50
-27 -62 -12 -19 -18 -21 -43 -13 -16 6 -36 21 -44 34 -9 13 -25 26 -36 30 -15
5 -20 14 -18 28 3 22 9 23 61 11 21 -5 27 -3 27 10 0 12 10 7 34 -17 33 -33
35 -34 40 -13 3 11 7 39 7 61 l2 40 4 -35 c3 -19 -1 -53 -7 -74z m567 22 c-2
-18 -4 -6 -4 27 0 33 2 48 4 33 2 -15 2 -42 0 -60z m1809 56 c-23 -17 -56 -19
-56 -3 0 6 8 8 19 4 11 -3 25 0 33 9 7 7 15 12 18 9 3 -2 -4 -11 -14 -19z
m674 -20 c0 -13 -4 -24 -10 -24 -5 0 -10 14 -10 31 0 17 4 28 10 24 6 -3 10
-17 10 -31z m-863 -28 c-4 -9 -14 -16 -24 -16 -17 1 -17 1 0 11 12 7 16 18 12
37 -5 26 -5 26 6 5 6 -12 9 -29 6 -37z m923 39 c0 -1 -10 -10 -22 -21 -13 -10
-18 -12 -11 -5 6 7 9 20 6 27 -4 10 0 12 11 8 9 -3 16 -7 16 -9z m47 -1 c-3
-3 -12 -4 -19 -1 -8 3 -5 6 6 6 11 1 17 -2 13 -5z m-3620 -26 c-3 -8 -6 -5 -6
6 -1 11 2 17 5 13 3 -3 4 -12 1 -19z m1093 -8 c0 -5 -6 -9 -12 -7 -8 1 -12 -7
-11 -20 2 -13 -2 -23 -7 -23 -11 0 -14 43 -3 53 10 11 33 8 33 -3z m-1083 -32
c-3 -8 -6 -5 -6 6 -1 11 2 17 5 13 3 -3 4 -12 1 -19z m2690 -61 c-45 -66 -133
-138 -164 -137 -4 1 6 9 24 18 50 27 107 83 137 135 16 26 31 45 34 42 3 -3
-11 -29 -31 -58z m-2790 -39 c-2 -13 -4 -3 -4 22 0 25 2 35 4 23 2 -13 2 -33
0 -45z m574 15 c13 -16 12 -17 -3 -4 -17 13 -22 21 -14 21 2 0 10 -8 17 -17z
m119 -101 c0 -13 2 -14 9 -4 5 9 26 13 57 12 27 -1 68 -1 91 0 23 0 44 -4 48
-10 5 -8 11 -8 21 1 7 6 21 9 29 5 9 -3 15 0 15 9 0 8 5 15 10 15 6 0 10 -14
10 -31 0 -30 -1 -30 -42 -28 -24 1 -49 7 -55 12 -9 6 -13 5 -13 -4 0 -8 -6 -5
-15 7 -13 17 -14 17 -15 2 0 -21 -49 -25 -68 -6 -9 9 -12 9 -12 -2 0 -13 -2
-13 -10 0 -8 12 -10 12 -10 1 0 -11 -3 -11 -15 -1 -10 9 -15 9 -15 1 0 -6 -9
-11 -20 -11 -16 0 -20 7 -20 31 0 17 4 28 10 24 6 -3 10 -14 10 -23z m1845
-15 c69 1 75 0 45 -9 -41 -12 -140 -5 -167 11 -15 9 -12 10 12 4 17 -5 66 -7
110 -6z m-3089 -43 c-3 -9 -6 -23 -7 -32 0 -12 -3 -10 -10 6 -10 25 -5 42 13
42 5 0 7 -7 4 -16z m217 -10 c23 1 50 -2 59 -6 13 -6 18 -2 21 15 3 16 5 13 6
-11 1 -32 1 -33 -41 -31 -24 2 -46 7 -50 13 -5 7 -8 7 -8 -2 0 -15 -90 -14
-90 2 0 6 -5 4 -10 -4 -8 -12 -11 -13 -19 -1 -5 7 -11 9 -14 4 -3 -5 -20 -10
-37 -11 -25 -2 -31 1 -28 15 3 16 14 18 81 17 64 -1 77 1 78 15 1 15 2 15 6 0
3 -12 15 -16 46 -15z m264 6 c-3 -13 -1 -18 5 -14 15 10 78 14 78 6 -1 -22
-20 -32 -61 -30 -41 2 -45 4 -43 28 2 31 1 30 15 30 6 0 9 -9 6 -20z m180 -27
c-3 -10 -5 -2 -5 17 0 19 2 27 5 18 2 -10 2 -26 0 -35z m133 17 l0 -31 -60 3
c-48 2 -60 6 -60 20 0 13 9 16 50 13 37 -2 50 1 50 11 0 8 5 14 10 14 6 0 10
-14 10 -30z m-152 -13 c2 -9 -1 -17 -7 -17 -6 0 -11 6 -11 13 0 8 -3 9 -8 1
-12 -18 -42 -12 -42 8 0 16 6 18 32 15 21 -2 34 -10 36 -20z m612 -7 c0 -20
-5 -30 -15 -30 -15 0 -21 40 -8 53 14 15 23 6 23 -23z m161 8 c21 -23 24 -38
9 -38 -5 0 -10 6 -10 13 0 8 -4 7 -11 -3 -9 -12 -12 -13 -16 -1 -5 11 -7 11
-14 0 -8 -12 -11 -11 -20 1 -8 11 -12 12 -16 3 -2 -7 -20 -13 -40 -13 -27 0
-34 4 -31 18 2 11 14 18 33 19 61 3 85 8 85 15 0 14 12 9 31 -14z m-1408 -72
c4 -9 14 -12 27 -9 13 4 26 0 32 -8 7 -11 11 -11 15 -1 7 17 33 15 33 -3 0
-12 -14 -15 -70 -14 -67 1 -70 2 -70 25 0 26 24 33 33 10z m483 -1 c5 -12 9
-13 21 -4 11 10 17 9 30 -3 14 -15 13 -17 -5 -27 -12 -6 -23 -7 -26 -2 -3 4
-17 6 -31 3 -22 -4 -25 -1 -25 22 0 29 27 37 36 11z m972 -26 c52 -2 76 3 89
19 11 15 12 13 13 -14 0 -26 -5 -33 -26 -38 -15 -4 -31 -3 -36 2 -5 5 -32 8
-59 5 -36 -3 -49 -1 -49 9 0 8 -3 9 -8 3 -11 -16 -34 -17 -44 -3 -6 9 -10 10
-15 2 -11 -16 -50 -26 -57 -15 -4 6 -13 8 -20 5 -9 -3 -15 4 -18 20 -4 20 -1
26 13 26 13 0 17 -5 12 -17 -5 -14 -4 -16 8 -7 20 15 140 9 150 -8 6 -9 9 -4
10 17 1 17 3 22 6 13 3 -11 15 -18 31 -19z m-861 6 c0 -8 -9 -15 -19 -15 -10
0 -18 7 -18 15 0 8 8 15 18 15 10 0 19 -7 19 -15z m-577 -68 c0 -9 10 -12 30
-9 23 3 30 0 30 -12 0 -21 -26 -32 -43 -17 -10 7 -17 7 -25 -1 -17 -17 -42 -1
-42 27 0 20 5 25 25 25 14 0 25 -6 25 -13z m130 -7 c8 -11 18 -16 24 -11 6 5
23 11 39 15 23 5 27 3 27 -14 0 -22 -2 -22 -92 -24 -49 -1 -58 2 -58 17 0 20
16 23 23 5 3 -7 6 -3 6 10 1 27 12 28 31 2z"/>
<path d="M5136 4221 c-4 -7 -5 -15 -2 -18 9 -9 19 4 14 18 -4 11 -6 11 -12 0z"/>
<path d="M5970 3530 c-56 -18 -81 -41 -35 -33 14 3 25 1 25 -5 0 -5 -25 -12
-55 -14 -63 -5 -75 -12 -54 -33 13 -13 21 -14 63 -1 27 8 57 24 68 35 10 12
25 21 33 21 9 0 15 10 15 25 0 14 -1 25 -2 24 -2 -1 -28 -9 -58 -19z"/>
<path d="M5995 3481 c-3 -6 1 -11 9 -11 16 0 23 -19 9 -21 -5 0 -15 -2 -23 -4
-8 -2 -28 -7 -45 -10 -16 -3 -44 -14 -60 -24 -17 -10 -41 -16 -53 -14 -16 2
-22 -2 -22 -17 0 -11 7 -20 15 -20 8 0 15 5 15 11 0 5 5 7 10 4 6 -3 13 1 16
10 6 13 8 14 15 3 7 -10 9 -11 9 0 0 7 4 11 9 8 5 -3 12 2 15 11 6 15 8 15 16
3 8 -12 10 -11 10 5 0 15 2 17 9 6 7 -11 15 -11 45 -1 32 10 37 16 34 38 -3
27 -22 40 -33 23z"/>
<path d="M5770 3443 l-25 -23 28 -27 c26 -27 27 -27 27 -5 0 12 4 22 9 22 5 0
11 11 13 24 7 34 -21 39 -52 9z"/>
<path d="M5704 3376 c-8 -32 20 -79 43 -74 41 8 29 90 -14 96 -17 3 -24 -3
-29 -22z m54 -20 c2 -10 -1 -23 -7 -29 -15 -15 -46 16 -37 38 8 21 40 15 44
-9z"/>
<path d="M5730 3355 c0 -8 5 -15 10 -15 6 0 10 7 10 15 0 8 -4 15 -10 15 -5 0
-10 -7 -10 -15z"/>
<path d="M5915 3374 c-38 -13 -82 -22 -97 -19 -22 4 -28 1 -28 -15 0 -10 -6
-25 -12 -32 -20 -20 -17 -142 4 -165 9 -10 30 -46 48 -80 l31 -63 36 15 c19 8
44 15 54 15 35 0 19 -18 -31 -35 -29 -10 -50 -23 -50 -31 0 -10 7 -13 25 -8
14 3 31 2 38 -4 8 -7 24 -2 50 15 33 21 38 28 33 50 -5 16 -3 22 4 18 7 -5 10
47 10 169 -1 161 -3 177 -20 186 -10 6 -20 10 -22 9 -2 -1 -34 -12 -73 -25z
m92 -316 c-3 -8 -6 -5 -6 6 -1 11 2 17 5 13 3 -3 4 -12 1 -19z"/>
<path d="M6110 3340 c0 -5 4 -10 9 -10 6 0 13 5 16 10 3 6 -1 10 -9 10 -9 0
-16 -4 -16 -10z"/>
<path d="M5490 3315 c0 -11 -5 -12 -26 -5 -41 16 -51 12 -60 -22 -9 -31 -13
-33 -66 -38 -31 -3 -60 -9 -65 -13 -4 -5 16 -5 44 -1 61 8 116 -2 92 -17 -11
-7 -10 -9 7 -9 26 0 112 -53 142 -88 42 -48 89 -126 112 -187 32 -84 33 -245
3 -322 -12 -29 -17 -51 -13 -48 5 3 19 31 31 63 18 45 22 78 23 155 0 97 8
124 20 66 14 -71 3 -194 -17 -182 -6 4 -8 -2 -5 -15 4 -12 3 -22 -1 -22 -5 0
-16 -17 -25 -37 -22 -48 -52 -83 -101 -116 -23 -16 -33 -27 -23 -27 9 0 35 18
59 40 l43 39 31 -19 c43 -26 54 -25 68 8 7 15 21 29 32 30 11 2 22 5 24 7 6 6
-39 74 -55 83 -12 7 -13 20 -5 78 12 80 0 181 -30 258 -11 26 -17 56 -14 65 6
19 -48 101 -65 101 -6 0 -32 17 -59 38 -39 30 -48 43 -49 68 0 43 -11 76 -23
69 -5 -4 -9 -1 -9 4 0 6 -4 11 -10 11 -5 0 -10 -7 -10 -15z m-33 -56 c1 -19 1
-20 -4 -4 -3 11 -10 24 -17 28 -7 6 -6 7 4 4 8 -2 16 -14 17 -28z m93 -84 c0
15 43 -30 87 -92 24 -35 42 -67 38 -73 -3 -5 -2 -10 4 -10 16 0 46 -89 34
-101 -8 -8 -13 -5 -18 10 -3 11 -4 25 -1 30 4 5 3 11 -1 13 -8 3 -44 76 -41
81 3 3 -25 37 -77 96 -40 46 -76 94 -42 58 9 -11 17 -16 17 -12z m200 -586
c15 -28 5 -23 -15 7 -9 15 -12 23 -6 20 6 -4 16 -16 21 -27z m-15 -29 c7 -21
0 -40 -15 -40 -4 0 -6 9 -3 20 3 12 0 20 -6 20 -7 0 -9 -5 -5 -12 4 -7 3 -8
-5 -4 -9 6 -9 11 0 22 16 19 27 18 34 -6z"/>
<path d="M6121 3311 c-8 -6 -9 -11 -3 -15 6 -3 14 -1 17 5 9 14 2 20 -14 10z"/>
<path d="M6180 3310 c-12 -7 -13 -13 -3 -27 6 -10 16 -17 22 -15 6 1 11 -9 11
-23 0 -14 -5 -25 -11 -25 -5 0 -7 6 -3 13 5 8 2 8 -9 -2 -9 -7 -17 -20 -17
-27 0 -17 -10 -17 -32 0 -14 10 -15 15 -5 26 10 10 8 10 -10 1 -29 -15 -33
-14 -34 7 0 9 -3 12 -5 6 -3 -7 -14 -10 -25 -7 -18 5 -20 1 -18 -44 2 -43 5
-50 21 -45 12 3 18 -1 19 -14 0 -11 3 -14 5 -7 3 7 12 9 20 6 12 -4 12 -8 2
-21 -11 -13 -10 -14 9 -4 29 16 33 15 33 -5 0 -15 2 -16 10 -3 8 12 10 9 10
-12 0 -16 5 -28 11 -28 8 0 8 -5 -1 -15 -15 -18 1 -20 18 -3 9 9 12 6 12 -15
0 -18 -4 -25 -14 -21 -8 3 -17 1 -21 -5 -3 -6 0 -9 8 -5 19 7 23 -8 22 -91 0
-62 -2 -70 -19 -67 -12 2 -16 -1 -10 -9 4 -8 3 -10 -5 -5 -6 4 -9 12 -6 17 3
5 0 6 -8 3 -8 -3 -20 2 -27 11 -8 10 -9 15 -1 15 6 0 11 7 11 15 0 8 -5 15
-11 15 -6 0 -8 7 -5 16 4 12 2 15 -9 10 -17 -6 -21 9 -5 19 6 3 10 10 10 15 0
12 -43 -1 -56 -18 -6 -8 -24 -16 -40 -17 -16 -1 -39 -3 -50 -3 -12 -1 -24 -11
-27 -22 -3 -13 -14 -20 -30 -20 -23 0 -25 -4 -29 -56 -3 -52 -1 -57 23 -70 15
-7 29 -20 33 -29 4 -12 14 -14 40 -10 27 6 39 2 55 -14 15 -15 21 -17 21 -7 0
13 44 34 143 66 24 7 37 17 33 25 -3 9 7 15 30 19 25 5 34 12 34 27 0 19 -1
19 -16 5 -8 -9 -19 -14 -24 -11 -5 3 -10 -1 -13 -7 -2 -7 -4 1 -3 19 1 18 5
29 11 25 6 -3 4 2 -4 11 -12 15 -11 17 2 17 9 0 18 4 22 9 3 6 -4 8 -15 6 -24
-5 -25 -1 -4 19 13 13 13 16 1 16 -9 0 -13 9 -12 28 3 40 4 44 15 37 5 -3 12
6 16 20 3 14 10 25 16 25 5 0 7 -4 4 -9 -4 -5 3 -7 14 -4 15 4 19 11 14 32 -9
42 -26 81 -34 81 -5 0 -11 14 -15 30 -4 17 -11 30 -16 30 -5 0 -9 10 -9 23 0
12 -7 33 -16 45 -13 18 -19 21 -30 11 -8 -6 -18 -9 -21 -5 -4 4 -1 11 7 16 8
5 12 11 9 14 -2 3 -11 1 -19 -4z m87 -286 c-3 -3 -12 -4 -19 -1 -8 3 -5 6 6 6
11 1 17 -2 13 -5z"/>
<path d="M5645 3289 c-5 -15 -12 -18 -27 -13 -14 4 -18 2 -14 -5 4 -6 13 -11
21 -11 7 0 36 -16 65 -35 29 -19 56 -35 61 -35 12 0 12 77 -1 85 -5 3 -30 12
-54 19 -42 13 -46 13 -51 -5z"/>
<path d="M6050 3270 c-8 -5 -12 -11 -9 -14 2 -3 11 -1 19 4 8 5 12 11 9 14 -2
3 -11 1 -19 -4z"/>
<path d="M6114 3265 c-10 -8 -14 -15 -8 -15 6 0 17 7 24 15 16 19 9 19 -16 0z"/>
<path d="M5558 3235 c2 -14 11 -25 18 -25 8 0 14 10 14 25 0 18 -5 25 -19 25
-14 0 -17 -6 -13 -25z"/>
<path d="M5610 3210 c0 -38 16 -62 29 -42 8 13 62 -33 59 -50 -2 -7 2 -12 8
-11 7 1 20 -8 30 -20 l19 -22 -24 20 -24 20 8 -20 c5 -11 8 -32 7 -47 -1 -15
3 -30 8 -33 6 -4 10 -15 10 -26 0 -10 3 -19 8 -19 12 0 81 26 88 32 11 11 -58
129 -102 173 -23 24 -60 52 -83 63 l-41 20 0 -38z m27 -12 c-3 -8 -6 -5 -6 6
-1 11 2 17 5 13 3 -3 4 -12 1 -19z m143 -182 c0 -12 -5 -7 -19 24 -11 24 -11
24 3 6 9 -11 16 -24 16 -30z"/>
<path d="M6040 3069 c0 -5 5 -7 10 -4 6 3 10 8 10 11 0 2 -4 4 -10 4 -5 0 -10
-5 -10 -11z"/>
<path d="M6044 3034 c3 -9 6 -22 6 -30 0 -8 5 -14 10 -14 6 0 10 14 10 30 0
21 -5 30 -16 30 -11 0 -14 -5 -10 -16z"/>
<path d="M5555 3007 c-20 -20 -48 -40 -61 -43 -13 -3 -24 -10 -24 -16 0 -5 -4
-7 -9 -3 -17 10 -21 -11 -6 -31 14 -19 14 -19 15 1 0 14 3 16 11 8 9 -9 19 -8
41 3 17 9 33 13 36 10 9 -10 -9 -22 -50 -36 -42 -13 -42 -13 -28 -40 6 -11 6
-21 1 -24 -5 -3 -7 -14 -4 -25 3 -12 12 -17 29 -15 13 1 27 -3 31 -8 3 -6 1
-8 -4 -5 -6 4 -13 -2 -16 -13 -5 -21 -27 -28 -27 -9 0 5 -4 7 -10 4 -5 -3 -10
-13 -10 -21 0 -16 31 -19 58 -5 9 5 38 15 64 22 38 9 51 18 63 43 20 40 13 81
-29 171 l-33 70 -38 -38z m52 -71 c-6 -13 -17 -22 -24 -19 -9 4 -6 11 10 24
12 10 23 18 24 19 0 0 -4 -11 -10 -24z m51 -106 c-2 -7 -10 1 -17 16 -12 27
-11 28 4 12 10 -9 16 -21 13 -28z"/>
<path d="M6300 3010 c-8 -5 -12 -11 -9 -14 2 -3 11 -1 19 4 8 5 12 11 9 14 -2
3 -11 1 -19 -4z"/>
<path d="M6110 3000 c0 -5 5 -10 11 -10 5 0 7 5 4 10 -3 6 -8 10 -11 10 -2 0
-4 -4 -4 -10z"/>
<path d="M6317 2983 c-4 -3 -7 -11 -7 -17 0 -6 5 -5 12 2 6 6 9 14 7 17 -3 3
-9 2 -12 -2z"/>
<path d="M6255 2970 c3 -5 8 -10 11 -10 2 0 4 5 4 10 0 6 -5 10 -11 10 -5 0
-7 -4 -4 -10z"/>
<path d="M5815 2958 c-12 -41 -13 -43 -14 -25 -1 10 -9 17 -21 17 -24 0 -25
-16 -6 -112 7 -37 11 -80 9 -95 -4 -22 2 -33 26 -51 37 -27 40 -11 6 33 -13
18 -21 36 -17 40 4 3 10 34 13 68 7 60 7 59 4 -13 -2 -54 1 -82 11 -95 12 -16
16 -17 23 -6 21 33 23 141 5 229 -5 23 -32 30 -39 10z"/>
<path d="M6164 2954 c-18 -14 -18 -14 6 -3 31 14 36 19 24 19 -6 0 -19 -7 -30
-16z"/>
<path d="M5286 2938 c-9 -12 -16 -29 -16 -38 0 -11 -2 -12 -8 -2 -5 7 -16 10
-25 6 -23 -9 -21 -24 3 -24 13 0 20 -7 20 -20 0 -11 -7 -20 -15 -20 -19 0 -19
-14 -1 -29 11 -9 15 -9 18 1 3 7 10 -4 17 -24 14 -44 72 -98 104 -98 34 0 70
29 64 51 -3 11 -1 17 3 14 12 -8 16 24 10 77 -6 48 -53 123 -71 113 -5 -4 -9
-1 -9 4 0 6 -18 11 -39 11 -30 0 -44 -6 -55 -22z"/>
<path d="M5900 2926 c0 -8 5 -18 10 -21 6 -3 10 3 10 14 0 12 -4 21 -10 21 -5
0 -10 -6 -10 -14z"/>
<path d="M6176 2923 c-6 -14 -5 -15 5 -6 7 7 10 15 7 18 -3 3 -9 -2 -12 -12z"/>
<path d="M4386 2788 l-39 -11 6 -53 c4 -40 2 -54 -7 -54 -21 0 -24 10 -13 39
6 15 8 35 4 44 -5 14 -28 8 -164 -37 -203 -69 -234 -82 -210 -91 9 -4 17 -18
17 -31 0 -14 6 -24 14 -24 23 0 28 18 9 29 -10 6 -13 11 -6 11 26 0 133 -114
133 -143 0 -6 -3 -7 -7 -4 -3 4 -12 2 -19 -4 -10 -8 -11 -16 -3 -30 11 -22 35
-25 42 -6 2 6 10 -12 17 -42 15 -65 8 -140 -20 -193 -24 -47 -25 -55 -3 -37 9
8 27 37 39 64 13 28 24 43 24 35 0 -8 -12 -35 -25 -59 -14 -24 -24 -45 -23
-47 2 -1 102 31 223 71 198 67 223 78 251 110 116 132 27 417 -146 465 -40 11
-42 11 -94 -2z m-366 -158 c18 -12 2 -12 -25 0 -13 6 -15 9 -5 9 8 0 22 -4 30
-9z m71 -47 c13 -16 12 -17 -3 -4 -17 13 -22 21 -14 21 2 0 10 -8 17 -17z m40
-40 c13 -16 12 -17 -3 -4 -17 13 -22 21 -14 21 2 0 10 -8 17 -17z m49 -87 c0
-12 -5 -7 -19 24 -11 24 -11 24 3 6 9 -11 16 -24 16 -30z"/>
<path d="M5660 2785 c0 -9 -12 -20 -27 -25 -16 -6 -35 -15 -43 -20 -16 -11
-102 -54 -110 -55 -3 0 -11 -4 -17 -8 -7 -5 -13 -5 -13 0 0 4 -5 1 -10 -7 -5
-8 -10 -50 -10 -93 0 -43 -5 -87 -10 -97 -6 -10 -6 -21 -2 -24 19 -12 31 14
35 74 l3 65 2 -67 c1 -37 6 -69 12 -73 5 -3 18 3 30 15 11 11 26 20 34 20 24
0 71 46 98 97 35 63 61 213 38 213 -5 0 -10 -7 -10 -15z m-173 -207 c-2 -18
-4 -4 -4 32 0 36 2 50 4 33 2 -18 2 -48 0 -65z m-10 -100 c-3 -8 -6 -5 -6 6
-1 11 2 17 5 13 3 -3 4 -12 1 -19z"/>
<path d="M4923 2777 c4 -10 -3 -12 -24 -9 -32 5 -59 -12 -59 -36 0 -13 2 -13
18 1 15 13 21 14 32 4 10 -9 11 -9 6 1 -11 19 8 14 32 -8 46 -43 36 -117 -18
-131 -22 -5 -23 -7 -7 -14 16 -7 32 -2 87 25 20 10 34 62 26 96 -8 32 -58 84
-81 84 -10 0 -15 -5 -12 -13z m54 -99 c-3 -8 -6 -5 -6 6 -1 11 2 17 5 13 3 -3
4 -12 1 -19z"/>
<path d="M5060 2757 c0 -41 33 -78 52 -59 9 9 9 12 0 12 -6 0 -16 18 -22 40
-13 49 -30 52 -30 7z"/>
<path d="M6272 2782 c13 -5 15 -11 8 -22 -5 -8 -10 -19 -9 -25 0 -11 28 35 29
48 0 4 -10 7 -22 6 -19 0 -20 -2 -6 -7z"/>
<path d="M6306 2774 c-4 -9 -4 -19 -1 -22 3 -3 5 1 5 8 0 7 3 11 6 7 3 -3 -4
-20 -16 -36 -25 -37 -16 -39 24 -7 21 18 26 29 21 45 -8 25 -30 28 -39 5z"/>
<path d="M4690 2750 c0 -10 7 -25 16 -32 9 -7 34 -30 56 -51 40 -38 67 -44 76
-18 3 9 0 11 -8 6 -9 -5 -10 -2 -5 14 3 12 3 21 -2 20 -19 -3 -27 2 -15 10 10
6 9 11 -4 22 -16 12 -17 12 -9 -1 4 -8 -3 -5 -16 6 -51 45 -89 55 -89 24z"/>
<path d="M4640 2748 c0 -7 4 -19 9 -27 7 -11 11 -10 20 7 15 28 14 32 -9 32
-11 0 -20 -6 -20 -12z"/>
<path d="M5874 2726 c-3 -11 -13 -36 -22 -54 -13 -30 -13 -35 1 -49 21 -21 41
-11 73 37 25 38 26 41 10 59 -27 29 -54 33 -62 7z"/>
<path d="M6200 2735 c-42 -15 -51 -35 -16 -35 14 0 26 4 26 10 0 5 7 7 15 4
10 -4 15 0 15 15 0 12 -1 20 -2 20 -2 -1 -19 -7 -38 -14z"/>
<path d="M4851 2711 c-13 -9 -13 -13 5 -81 2 -8 8 -31 14 -50 l10 -35 -4 37
c-4 32 -1 37 20 42 14 4 28 5 32 2 12 -7 13 53 2 74 -11 21 -54 27 -79 11z"/>
<path d="M5470 2710 c-13 -8 -13 -10 2 -10 9 0 20 5 23 10 8 13 -5 13 -25 0z"/>
<path d="M5982 2698 c-18 -18 -14 -53 8 -73 40 -37 69 14 34 63 -17 25 -25 27
-42 10z m36 -20 c19 -19 15 -48 -8 -48 -23 0 -35 22 -26 45 7 18 18 19 34 3z"/>
<path d="M6000 2660 c0 -5 5 -10 11 -10 5 0 7 5 4 10 -3 6 -8 10 -11 10 -2 0
-4 -4 -4 -10z"/>
<path d="M6076 2702 c-7 -12 3 -42 15 -42 4 0 14 9 22 21 11 15 16 17 20 7 4
-9 6 -7 6 5 1 21 -17 23 -25 2 -6 -14 -8 -13 -19 1 -8 11 -14 13 -19 6z"/>
<path d="M6165 2674 c-53 -19 -74 -22 -87 -14 -15 8 -18 6 -18 -13 0 -31 -18
-47 -53 -47 -23 0 -31 6 -40 30 -14 37 -20 37 -47 3 l-21 -26 38 -15 c61 -22
160 -20 210 6 47 24 113 79 113 93 0 13 -18 10 -95 -17z"/>
<path d="M4687 2683 c-4 -3 0 -18 8 -33 8 -15 17 -47 21 -69 5 -31 10 -41 21
-36 8 3 33 0 54 -7 47 -14 65 -2 55 36 -7 29 -67 67 -74 46 -2 -6 -12 2 -23
19 -19 31 -52 55 -62 44z m143 -114 c0 -24 -23 -21 -28 4 -2 10 3 17 12 17 10
0 16 -9 16 -21z"/>
<path d="M5770 2668 c0 -7 7 -22 15 -32 20 -26 46 -6 29 22 -14 21 -44 28 -44
10z"/>
<path d="M3873 2604 c-18 -9 -33 -20 -33 -25 0 -14 42 -4 54 13 6 9 20 18 31
21 20 5 20 5 0 6 -11 0 -35 -7 -52 -15z"/>
<path d="M3930 2584 c0 -9 7 -14 17 -12 25 5 28 28 4 28 -12 0 -21 -6 -21 -16z"/>
<path d="M3911 2574 c0 -11 3 -14 6 -6 3 7 2 16 -1 19 -3 4 -6 -2 -5 -13z"/>
<path d="M3796 2565 c-19 -14 -18 -15 12 -15 24 0 30 4 26 15 -7 18 -14 18
-38 0z"/>
<path d="M4008 2556 c-9 -8 -18 -12 -22 -9 -3 4 -6 1 -6 -6 0 -7 10 -10 26 -7
33 6 41 13 27 27 -7 7 -15 6 -25 -5z"/>
<path d="M3917 2553 l-29 -4 39 -34 c21 -19 49 -35 63 -36 18 -1 20 -3 7 -6
-10 -3 -16 -8 -15 -11 24 -43 42 -95 46 -129 2 -24 9 -43 14 -43 5 0 6 -5 2
-11 -4 -6 -10 -25 -14 -43 -4 -17 -11 -39 -15 -48 -5 -14 -2 -18 14 -18 14 0
21 6 21 19 0 10 10 25 21 33 20 13 20 16 8 39 -15 28 -13 130 3 140 13 8 3 39
-13 39 -6 0 -8 -7 -5 -17 4 -10 -4 -5 -18 12 -18 22 -22 34 -15 48 14 25 1 40
-27 33 -19 -5 -27 -1 -36 19 -6 14 -14 24 -17 24 -3 -1 -19 -4 -34 -6z"/>
<path d="M4047 2542 c-6 -27 7 -46 27 -39 21 8 20 20 -3 41 -17 16 -19 16 -24
-2z"/>
<path d="M3800 2530 c-13 -9 -13 -10 0 -11 10 0 9 -3 -5 -10 -17 -8 -16 -9 8
-6 15 3 27 0 27 -4 0 -5 6 -9 13 -9 19 0 62 -48 88 -100 31 -59 38 -160 15
-214 -19 -47 -15 -54 19 -32 52 34 71 146 39 238 -35 103 -147 185 -204 148z"/>
<path d="M3722 2501 c-8 -4 -13 -11 -13 -15 1 -3 -11 -24 -25 -45 -24 -37 -26
-61 -4 -61 5 0 17 14 27 30 9 17 25 32 34 35 19 6 15 44 -5 46 -6 0 -2 4 9 9
13 6 15 9 5 9 -8 0 -21 -3 -28 -8z"/>
<path d="M4073 2485 c-11 -8 -23 -11 -27 -8 -3 3 -6 1 -6 -5 0 -12 55 -10 67
2 16 15 -14 25 -34 11z"/>
<path d="M3790 2473 c0 -10 15 -25 33 -34 20 -9 42 -34 59 -65 65 -117 5 -244
-96 -206 -21 8 -33 9 -41 1 -13 -13 18 -38 58 -46 21 -4 25 -8 15 -14 -9 -6
-3 -9 17 -9 20 0 26 3 17 9 -10 6 -9 10 7 14 13 3 19 1 15 -5 -14 -23 30 -1
45 22 15 24 15 24 -2 11 -18 -14 -18 -13 -1 22 9 20 20 35 23 33 3 -2 6 22 6
55 0 32 -3 59 -6 59 -3 0 -11 18 -18 41 -7 24 -31 59 -56 85 -46 46 -75 56
-75 27z"/>
<path d="M5530 2470 c-8 -5 -10 -10 -5 -10 6 0 17 5 25 10 8 5 11 10 5 10 -5
0 -17 -5 -25 -10z"/>
<path d="M3516 2414 c-20 -14 -36 -31 -36 -39 0 -22 13 -18 40 10 28 30 44 31
68 7 61 -66 90 -100 100 -119 13 -24 5 -170 -10 -190 -5 -6 -35 -15 -65 -19
-50 -6 -58 -4 -74 15 -17 21 -39 28 -39 12 0 -4 12 -21 27 -36 25 -25 32 -26
78 -20 80 10 98 23 108 75 4 25 6 75 5 112 -4 65 -4 67 -63 134 -75 83 -91 90
-139 58z"/>
<path d="M3743 2425 c-34 -24 -28 -38 7 -20 39 20 74 6 107 -44 42 -63 23
-161 -32 -161 -13 0 -27 -4 -30 -10 -13 -21 52 -9 73 13 26 28 30 112 8 155
-33 64 -94 95 -133 67z"/>
<path d="M3732 2383 c-24 -8 -41 -17 -38 -20 6 -6 77 16 91 28 13 13 -2 10
-53 -8z"/>
<path d="M4107 2393 c-13 -12 -7 -23 13 -23 11 0 20 7 20 15 0 15 -21 21 -33
8z"/>
<path d="M3526 2371 c-16 -17 -16 -19 6 -25 31 -8 40 -7 57 3 12 8 12 12 2 25
-18 21 -44 20 -65 -3z"/>
<path d="M3760 2363 c-25 -9 -46 -17 -48 -18 -1 -1 7 -22 18 -46 11 -24 20
-58 20 -76 l0 -32 43 15 c23 8 48 22 55 31 23 32 10 114 -22 135 -14 9 -11 10
-66 -9z"/>
<path d="M3450 2351 c-12 -24 -13 -54 -1 -47 8 5 22 66 15 66 -2 0 -8 -9 -14
-19z"/>
<path d="M4123 2344 c-3 -9 0 -20 8 -25 23 -14 29 -11 29 16 0 28 -27 35 -37
9z"/>
<path d="M3590 2329 c0 -5 5 -7 10 -4 6 3 10 8 10 11 0 2 -4 4 -10 4 -5 0 -10
-5 -10 -11z"/>
<path d="M4077 2319 c-4 -15 -1 -19 11 -17 21 4 29 38 9 38 -8 0 -17 -9 -20
-21z"/>
<path d="M3608 2314 c-4 -3 2 -24 13 -47 10 -23 19 -57 19 -75 0 -26 4 -33 17
-30 26 5 37 72 18 108 -18 35 -53 58 -67 44z"/>
<path d="M3462 2293 c-23 -8 -40 -19 -37 -24 4 -5 13 -4 23 1 9 6 35 17 57 24
22 8 31 14 20 14 -11 0 -39 -7 -63 -15z"/>
<path d="M3535 2290 c-11 -4 -33 -13 -49 -19 -28 -11 -28 -12 -11 -31 10 -11
19 -40 21 -67 l3 -48 -8 47 c-11 58 -17 68 -41 68 -10 0 -26 8 -36 17 -16 16
-18 16 -35 -6 -30 -36 -20 -92 23 -138 25 -27 50 -29 72 -7 9 8 20 13 25 10 5
-3 29 1 54 10 37 12 47 21 52 45 13 60 -31 134 -70 119z m-83 -95 c8 -19 8
-28 -2 -39 -17 -21 -50 -3 -50 28 0 43 34 51 52 11z"/>
<path d="M4115 2289 c-4 -6 -4 -13 -1 -16 8 -8 36 5 36 17 0 13 -27 13 -35 -1z"/>
<path d="M4085 2270 c3 -5 8 -10 11 -10 2 0 4 5 4 10 0 6 -5 10 -11 10 -5 0
-7 -4 -4 -10z"/>
<path d="M4117 2253 c-8 -7 11 -33 24 -33 5 0 9 9 9 20 0 19 -20 27 -33 13z"/>
<path d="M4100 2222 c-24 -9 -41 -30 -30 -37 5 -3 10 -2 10 3 0 6 8 8 19 5 21
-5 38 14 25 27 -5 4 -16 5 -24 2z"/>
<path d="M4093 2165 c-8 -22 6 -33 17 -15 13 20 12 30 0 30 -6 0 -13 -7 -17
-15z"/>
<path d="M4045 2150 c-4 -6 -11 -8 -16 -5 -5 4 -9 0 -9 -8 0 -9 9 -12 30 -9
17 2 30 10 30 18 0 16 -26 19 -35 4z"/>
<path d="M3615 2120 c-21 -16 -43 -30 -49 -30 -6 0 -4 -4 4 -9 25 -14 89 -1
101 21 11 21 6 48 -9 48 -5 0 -26 -13 -47 -30z"/>
<path d="M3968 2116 c-25 -19 -22 -23 12 -18 17 2 30 10 30 18 0 18 -20 17
-42 0z"/>
<path d="M4875 3771 c-3 -5 -1 -12 5 -16 5 -3 10 1 10 9 0 18 -6 21 -15 7z"/>
<path d="M4996 3513 c-11 -11 -6 -23 9 -23 8 0 15 4 15 9 0 13 -16 22 -24 14z"/>
<path d="M2643 2698 c-51 -56 -58 -119 -18 -166 14 -17 21 -32 15 -34 -6 -2
-1 -9 11 -16 12 -8 18 -9 14 -3 -3 6 1 11 9 11 9 0 16 7 16 16 0 9 9 27 20 41
11 14 25 43 30 63 23 85 -44 146 -97 88z m71 -14 c28 -74 -41 -171 -84 -119
-19 23 -5 86 25 113 31 26 50 28 59 6z"/>
<path d="M2658 2663 c-24 -28 -30 -67 -13 -89 14 -18 16 -18 41 10 18 20 24
37 22 60 -4 36 -27 45 -50 19z"/>
<path d="M2446 2614 c-3 -9 -6 -31 -6 -51 0 -27 4 -34 18 -31 20 4 32 78 12
78 -6 0 -8 5 -5 10 3 6 2 10 -3 10 -6 0 -13 -7 -16 -16z"/>
<path d="M2870 2538 c-52 -16 -99 -34 -104 -39 -17 -15 40 -29 74 -17 17 5 33
8 36 6 2 -3 -14 -10 -36 -17 -25 -7 -40 -18 -40 -27 0 -9 6 -14 13 -11 6 2 65
21 130 41 108 34 146 56 96 56 -11 0 -17 5 -14 10 6 9 -36 31 -53 29 -4 0 -50
-14 -102 -31z m80 -33 c-19 -7 -42 -13 -50 -13 -8 0 1 6 20 13 19 7 42 13 50
13 8 0 -1 -6 -20 -13z"/>
<path d="M2563 2506 c-49 -18 -48 -21 9 -46 56 -24 85 -28 133 -17 17 4 11 0
-12 -9 -39 -14 -52 -31 -37 -46 3 -3 34 4 70 15 47 16 64 26 64 39 0 15 -6 17
-27 13 -23 -4 -24 -4 -8 4 19 8 19 9 -7 21 -23 11 -29 10 -43 -4 -31 -31 -101
-13 -93 24 4 18 -12 19 -49 6z"/>
<path d="M2340 2496 c-32 -12 -33 -13 -15 -25 19 -11 19 -12 -3 -6 -12 4 -47
-1 -77 -10 -51 -14 -55 -18 -49 -40 4 -18 2 -25 -8 -25 -7 0 -14 -9 -15 -20
-1 -14 10 -25 44 -40 51 -22 56 -24 49 -11 -3 4 38 21 91 37 52 15 102 34 110
42 10 11 17 11 27 3 8 -7 27 -9 43 -6 22 4 24 4 8 -4 -17 -8 -202 -66 -272
-86 -18 -5 -23 -14 -23 -40 0 -29 -4 -36 -25 -41 -14 -3 -32 -19 -40 -35 -20
-37 -19 -49 3 -50 14 0 14 -2 -3 -8 -36 -15 -44 -4 -30 42 9 33 20 46 49 61
30 15 37 23 34 44 -3 22 -16 30 -105 65 -56 22 -100 44 -97 48 3 5 -2 6 -10 3
-27 -10 -19 -104 9 -104 7 0 23 -20 36 -45 25 -47 18 -74 -15 -62 -18 7 -23
67 -5 67 5 0 7 5 4 10 -13 21 -33 8 -39 -25 -4 -19 -8 -38 -9 -42 -3 -10 94
-44 105 -37 5 3 8 2 7 -3 -2 -4 29 -40 68 -78 82 -83 141 -193 174 -324 31
-122 24 -281 -14 -365 -15 -32 -27 -60 -27 -62 0 -2 9 -8 19 -14 18 -9 19 -7
14 24 -6 39 8 53 31 30 21 -20 20 -51 0 -62 -15 -8 -15 -10 0 -15 13 -5 21 2
30 25 13 29 12 35 -10 63 -31 41 -30 60 1 81 25 16 25 17 8 36 -17 19 -16 20
7 39 l25 19 -24 19 -24 18 28 19 28 18 -26 11 c-15 6 -23 15 -19 21 8 12 162
67 169 60 3 -2 -27 -15 -66 -27 -74 -24 -84 -40 -23 -37 21 0 46 -3 57 -9 11
-6 25 -9 30 -8 6 2 90 29 188 61 143 46 176 60 172 73 -4 13 33 29 188 82 105
36 190 69 189 74 -2 4 2 11 9 16 8 4 10 11 6 15 -4 4 -40 -3 -80 -16 -105 -36
-114 -35 -20 3 45 17 85 36 90 41 5 5 0 6 -11 2 -108 -39 -663 -225 -736 -247
-52 -16 -112 -29 -132 -29 -85 0 -33 27 210 109 302 103 278 95 272 88 -3 -3
-111 -42 -239 -86 -128 -44 -236 -83 -240 -87 -13 -14 71 10 274 78 509 170
595 200 595 210 0 6 -12 8 -27 5 l-28 -6 28 12 c29 11 34 43 7 41 -8 -1 -196
-63 -417 -137 -428 -144 -493 -163 -493 -142 0 7 178 72 443 160 243 82 448
150 455 153 15 5 16 28 2 37 -6 4 -114 -28 -240 -70 -126 -42 -235 -73 -241
-69 -7 4 -9 3 -6 -3 6 -10 -423 -157 -432 -147 -9 8 39 41 84 58 38 13 267 91
639 215 93 32 172 63 174 71 3 9 -1 11 -13 7 -9 -4 -29 -10 -43 -13 -23 -4
-23 -3 6 10 31 15 44 36 20 36 -6 0 -171 -52 -367 -116 -341 -112 -485 -169
-460 -184 6 -5 -3 -12 -22 -19 -22 -8 -36 -8 -43 -1 -12 12 10 30 73 60 24 12
45 30 48 41 5 19 22 23 73 21 15 -1 19 1 10 5 -9 4 5 13 39 24 29 10 58 16 64
12 6 -4 7 -1 2 7 -6 10 -2 11 19 6 14 -3 26 -3 26 2 0 11 97 45 109 38 5 -3
11 -2 13 3 3 8 234 87 325 111 22 5 51 19 64 29 19 16 21 20 9 33 -13 13 -28
11 -130 -23 -63 -21 -235 -77 -382 -124 -146 -47 -277 -95 -291 -105 -14 -11
-29 -20 -35 -20 -15 0 -44 -38 -37 -49 4 -7 -4 -11 -19 -11 -31 0 -33 11 -6
35 11 10 19 23 17 29 -6 19 77 50 576 211 147 47 267 91 267 96 0 6 -7 17 -15
26 -16 15 -85 -4 -672 -192 -118 -38 -203 -95 -203 -137 0 -10 -7 -18 -15 -18
-18 0 -19 14 -5 41 8 14 7 19 -2 19 -7 0 5 9 27 21 22 12 49 29 60 39 18 16
210 81 638 215 95 30 147 51 144 58 -2 7 -11 11 -21 9 -9 -2 -16 4 -16 14 0
11 -5 14 -17 9 -25 -9 -95 -31 -442 -139 -241 -75 -310 -101 -328 -121 -13
-14 -28 -25 -33 -25 -14 0 -42 -60 -36 -76 4 -9 -2 -14 -15 -14 -18 0 -20 4
-14 31 7 32 41 79 57 79 5 0 19 11 31 24 21 24 171 74 665 225 56 18 102 36
102 41 0 10 -26 3 -249 -70 -85 -27 -158 -50 -163 -50 -4 0 -8 11 -8 25 0 18
-5 25 -20 25 -11 0 -19 5 -17 12 1 6 -26 22 -60 34 -45 17 -61 19 -57 9 6 -16
-26 -28 -50 -19 -24 9 -19 23 12 31 l27 6 -30 13 c-37 16 -60 16 -105 0z m86
-69 c2 -1 -15 -3 -37 -3 -32 -1 -39 2 -39 17 0 18 2 18 37 4 20 -9 38 -17 39
-18z m-339 -133 c-3 -3 -12 -4 -19 -1 -8 3 -5 6 6 6 11 1 17 -2 13 -5z m48
-16 c14 -6 25 -20 25 -30 0 -19 -1 -19 -17 -1 -9 10 -23 24 -32 31 -19 15 -10
15 24 0z m-28 -60 c-3 -7 -5 -2 -5 12 0 14 2 19 5 13 2 -7 2 -19 0 -25z m1023
-48 c-8 -5 -22 -9 -30 -9 -10 0 -8 3 5 9 27 12 43 12 25 0z m-135 -45 c-16 -8
-37 -14 -45 -14 -8 0 -1 7 15 14 17 8 37 14 45 14 8 0 2 -7 -15 -14z m-80 -25
c-27 -12 -43 -12 -25 0 8 5 22 9 30 9 10 0 8 -3 -5 -9z m-60 -20 c-27 -12 -43
-12 -25 0 8 5 22 9 30 9 10 0 8 -3 -5 -9z m-48 -16 c-3 -3 -12 -4 -19 -1 -8 3
-5 6 6 6 11 1 17 -2 13 -5z m-47 -13 c-8 -5 -26 -11 -40 -15 -21 -5 -20 -3 5
9 32 15 60 20 35 6z m-73 -27 c-3 -3 -12 -4 -19 -1 -8 3 -5 6 6 6 11 1 17 -2
13 -5z m-277 -13 c-8 -5 -26 -11 -40 -15 -21 -5 -20 -3 5 9 32 15 60 20 35 6z
m215 -6 c-16 -8 -37 -14 -45 -14 -8 0 1 7 20 14 46 18 64 17 25 0z m596 0
c-18 -8 -38 -15 -45 -15 -15 1 46 28 64 29 8 0 0 -6 -19 -14z m-661 -19 c0 -6
-121 -46 -134 -45 -6 0 18 11 54 24 68 25 80 28 80 21z m568 -11 c-7 -8 -180
-65 -192 -64 -6 0 30 15 79 33 85 32 125 42 113 31z m11 -69 c-8 -8 -251 -88
-254 -84 -5 5 223 86 244 87 8 1 12 -1 10 -3z m-294 -101 c-16 -8 -37 -14 -45
-14 -8 0 -1 6 15 14 17 7 37 13 45 13 8 0 2 -6 -15 -13z m-66 -20 c-9 -9 -181
-66 -186 -62 -2 3 35 19 84 35 87 30 111 36 102 27z"/>
<path d="M2448 2463 c7 -3 16 -2 19 1 4 3 -2 6 -13 5 -11 0 -14 -3 -6 -6z"/>
<path d="M2118 2416 c-50 -15 -55 -23 -24 -37 32 -15 71 0 79 30 6 24 -1 24
-55 7z"/>
<path d="M1967 2343 c-12 -11 -8 -23 8 -23 8 0 15 7 15 15 0 16 -12 20 -23 8z"/>
<path d="M1913 2323 c-18 -7 -16 -23 2 -23 8 0 15 7 15 15 0 8 -1 15 -2 14 -2
0 -9 -3 -15 -6z"/>
<path d="M1987 2303 c-10 -10 -8 -93 2 -93 11 0 21 35 21 73 0 26 -9 34 -23
20z"/>
<path d="M1867 2257 c-3 -8 -1 -20 4 -28 5 -8 9 -24 9 -36 0 -15 6 -23 16 -23
13 0 15 7 10 31 -3 17 -6 40 -6 50 0 22 -25 26 -33 6z"/>
<path d="M1930 2220 c0 -20 5 -30 15 -30 10 0 15 10 15 30 0 20 -5 30 -15 30
-10 0 -15 -10 -15 -30z"/>
<path d="M1817 2223 c-2 -5 2 -23 9 -40 18 -43 39 -44 30 -2 -3 17 -6 35 -6
40 0 11 -27 12 -33 2z"/>
<path d="M1920 2169 c0 -5 5 -7 10 -4 6 3 10 8 10 11 0 2 -4 4 -10 4 -5 0 -10
-5 -10 -11z"/>
<path d="M1780 2154 c0 -21 27 -47 35 -34 10 16 -5 50 -21 50 -8 0 -14 -7 -14
-16z"/>
<path d="M1934 2141 c-18 -11 -34 -25 -37 -33 -5 -10 -9 -9 -20 4 -13 16 -16
15 -47 -17 -24 -25 -29 -35 -18 -35 9 0 19 8 22 17 6 14 9 15 15 4 6 -9 11
-10 15 -2 4 6 16 11 26 11 18 0 86 21 140 43 l25 10 -25 7 c-42 13 -63 11 -96
-9z"/>
<path d="M1747 2104 c-3 -4 1 -13 9 -22 17 -16 42 -2 30 17 -8 12 -29 15 -39
5z"/>
<path d="M1730 2035 c0 -9 6 -12 15 -9 8 4 15 10 15 15 0 5 -7 9 -15 9 -8 0
-15 -7 -15 -15z"/>
<path d="M1935 1980 c-3 -5 -1 -10 4 -10 6 0 11 5 11 10 0 6 -2 10 -4 10 -3 0
-8 -4 -11 -10z"/>
<path d="M1877 1967 c-48 -36 -60 -156 -28 -289 25 -106 41 -128 91 -128 22 0
40 2 40 5 0 3 -11 16 -25 28 -34 31 -66 136 -72 238 -5 78 -4 88 15 107 14 14
22 17 25 9 2 -7 7 -9 11 -6 3 3 -4 15 -17 27 -19 18 -26 20 -40 9z"/>
<path d="M2091 1974 c-1 -6 5 -16 12 -22 10 -8 13 -6 14 11 2 15 0 18 -6 8 -7
-11 -9 -11 -14 0 -3 8 -6 9 -6 3z"/>
<path d="M1135 1960 c3 -5 10 -10 16 -10 5 0 9 5 9 10 0 6 -7 10 -16 10 -8 0
-12 -4 -9 -10z"/>
<path d="M2050 1950 c0 -5 5 -10 11 -10 5 0 7 5 4 10 -3 6 -8 10 -11 10 -2 0
-4 -4 -4 -10z"/>
<path d="M1140 1932 c0 -19 12 -42 22 -42 14 0 5 43 -9 48 -7 2 -13 -1 -13 -6z"/>
<path d="M2138 1894 c11 -24 18 -30 24 -22 11 18 10 30 -3 23 -6 -4 -9 0 -7
10 2 11 -4 19 -14 20 -16 3 -16 1 0 -31z"/>
<path d="M1755 1874 c-68 -38 -75 -40 -75 -19 0 8 -4 15 -10 15 -15 0 -12 -16
5 -30 13 -11 24 -9 65 10 28 13 57 32 67 42 21 24 19 23 -52 -18z"/>
<path d="M1910 1890 c6 -11 15 -18 21 -14 6 4 6 11 -2 20 -17 21 -31 17 -19
-6z"/>
<path d="M2221 1894 c0 -11 3 -14 6 -6 3 7 2 16 -1 19 -3 4 -6 -2 -5 -13z"/>
<path d="M3130 1832 c-85 -30 -157 -56 -158 -58 -2 -1 -1 -12 3 -24 5 -16 12
-19 28 -14 31 9 312 106 313 107 1 1 5 12 8 25 6 19 4 22 -16 21 -13 -1 -93
-26 -178 -57z"/>
<path d="M2197 1856 c-26 -7 -51 -17 -55 -21 -4 -5 2 -5 13 -1 11 5 37 10 58
13 20 3 37 10 37 14 0 5 -1 9 -2 8 -2 0 -24 -6 -51 -13z"/>
<path d="M2260 1862 c0 -4 9 -8 20 -8 11 0 20 4 20 8 0 4 -9 8 -20 8 -11 0
-20 -4 -20 -8z"/>
<path d="M830 1850 c8 -5 11 -12 8 -16 -9 -8 9 -44 22 -44 17 0 11 36 -8 53
-10 10 -23 17 -28 17 -5 0 -2 -4 6 -10z"/>
<path d="M896 1833 c-6 -14 -5 -15 5 -6 7 7 10 15 7 18 -3 3 -9 -2 -12 -12z"/>
<path d="M1910 1830 c0 -19 11 -26 23 -14 8 8 -3 34 -14 34 -5 0 -9 -9 -9 -20z"/>
<path d="M774 1825 c-7 -18 23 -68 36 -60 14 9 12 49 -2 63 -16 16 -27 15 -34
-3z"/>
<path d="M2181 1815 c1 -19 18 -51 18 -35 0 8 -4 22 -9 30 -5 8 -9 11 -9 5z"/>
<path d="M3145 1760 c-114 -40 -161 -61 -163 -73 -2 -9 1 -17 6 -17 8 0 255
88 325 115 20 8 22 21 5 27 -7 3 -85 -21 -173 -52z"/>
<path d="M1700 1806 c0 -2 11 -24 25 -47 30 -53 33 -44 5 11 -18 35 -30 49
-30 36z"/>
<path d="M1913 1766 c7 -15 16 -21 21 -16 6 6 4 15 -4 25 -19 23 -29 18 -17
-9z"/>
<path d="M2210 1784 c0 -6 7 -19 16 -30 14 -18 14 -18 3 6 -14 31 -19 36 -19
24z"/>
<path d="M3340 1763 c-8 -3 -71 -25 -140 -50 -222 -79 -208 -72 -214 -107 -11
-64 -10 -486 2 -498 8 -8 9 -5 5 11 -4 17 -1 21 17 21 18 0 21 -4 16 -28 -6
-26 -2 -29 59 -60 l65 -32 0 126 c0 75 4 123 9 119 5 -3 13 -1 16 5 4 6 1 9
-7 8 -10 -2 -12 24 -10 132 4 156 6 161 102 197 87 34 104 37 96 22 -4 -8 -1
-6 7 4 8 9 39 26 68 36 127 44 125 40 29 72 -87 30 -94 31 -120 22z"/>
<path d="M2196 1745 c-3 -8 -2 -14 2 -13 4 1 23 -14 44 -35 20 -20 42 -37 50
-36 7 0 4 5 -7 11 -11 5 -34 27 -51 49 -24 28 -33 35 -38 24z"/>
<path d="M2763 1686 l-183 -61 -2 -50 -2 -50 -3 47 c-5 56 -25 72 -78 62 -43
-8 -44 -18 -5 -34 47 -19 34 -50 -21 -50 -28 0 -23 -16 11 -37 40 -23 35 -49
-8 -47 -40 2 -40 -3 0 -36 52 -44 5 -73 -49 -30 -36 28 -41 17 -9 -24 22 -29
30 -34 48 -27 14 5 31 3 47 -6 42 -21 50 -16 54 35 l3 47 2 -47 c2 -52 4 -53
49 -38 26 9 29 15 25 41 -4 26 -2 30 14 27 13 -2 18 -11 17 -25 -3 -22 -2 -22
72 5 41 15 75 30 75 34 0 5 -8 15 -19 24 -80 68 -84 79 -54 141 24 51 55 62
95 33 29 -22 33 -22 77 -8 25 8 45 17 44 21 -2 4 -3 19 -3 34 0 21 -3 24 -12
15 -19 -19 -28 -14 -28 12 0 29 19 44 31 25 6 -10 9 -8 9 9 0 12 -3 21 -7 20
-5 0 -90 -29 -190 -62z m-93 -75 c0 -11 -5 -23 -11 -27 -15 -9 -33 12 -26 30
9 23 37 20 37 -3z"/>
<path d="M1783 1720 c-27 -11 -28 -26 -7 -71 14 -32 14 -13 -1 23 -5 12 2 21
24 33 47 24 34 35 -16 15z"/>
<path d="M2260 1721 c0 -6 4 -13 10 -16 6 -3 7 1 4 9 -7 18 -14 21 -14 7z"/>
<path d="M1929 1706 c6 -7 8 -22 4 -32 -6 -17 -5 -17 10 -5 21 17 22 37 1 45
-24 9 -28 7 -15 -8z"/>
<path d="M3550 1700 c-9 -6 -9 -9 1 -13 10 -4 10 -6 2 -6 -16 -1 -17 -57 -2
-66 21 -14 59 5 59 28 0 28 -42 68 -60 57z m32 -62 c-15 -15 -26 -4 -18 18 5
13 9 15 18 6 9 -9 9 -15 0 -24z"/>
<path d="M2260 1630 c-41 -16 -66 -29 -54 -29 18 -1 142 44 153 55 11 11 -32
-1 -99 -26z"/>
<path d="M3490 1641 c0 -5 7 -12 16 -15 22 -9 24 -8 24 9 0 8 -9 15 -20 15
-11 0 -20 -4 -20 -9z"/>
<path d="M1960 1614 c0 -14 4 -23 10 -19 6 3 10 15 10 26 0 10 -4 19 -10 19
-5 0 -10 -12 -10 -26z"/>
<path d="M3413 1618 c-21 -10 -23 -18 -23 -80 0 -67 0 -68 26 -68 15 0 32 7
38 15 6 8 40 25 76 39 49 18 66 29 68 45 3 15 -2 21 -16 21 -10 0 -45 9 -77
20 -66 23 -62 22 -92 8z"/>
<path d="M1790 1596 c0 -9 5 -16 10 -16 6 0 10 4 10 9 0 6 -4 13 -10 16 -5 3
-10 -1 -10 -9z"/>
<path d="M2916 1590 c-27 -11 -53 -25 -58 -32 -4 -7 -7 -87 -7 -178 0 -109 3
-157 9 -142 10 24 25 29 36 10 4 -6 -1 -17 -11 -24 -28 -21 -12 -27 34 -13 41
12 60 42 21 32 -14 -4 -20 0 -20 10 0 16 17 32 35 32 6 0 11 51 13 127 3 123
2 126 -18 121 -16 -4 -20 -1 -20 21 0 19 5 26 20 26 11 0 20 7 20 15 0 8 -1
15 -2 15 -2 -1 -25 -10 -52 -20z"/>
<path d="M2440 1595 c0 -9 44 -23 54 -17 5 3 1 9 -10 13 -23 9 -44 11 -44 4z"/>
<path d="M3333 1590 c-18 -8 -23 -18 -25 -52 l-1 -43 -4 38 c-3 29 -9 37 -23
37 -17 0 -19 -6 -17 -42 2 -37 5 -43 24 -43 12 0 25 -4 29 -8 4 -4 20 -7 36
-7 28 0 28 0 28 65 0 68 -3 72 -47 55z"/>
<path d="M2807 1579 c7 -7 15 -10 18 -7 3 3 -2 9 -12 12 -14 6 -15 5 -6 -5z"/>
<path d="M1995 1567 c-4 -10 -5 -21 -1 -24 10 -10 18 4 13 24 -4 17 -4 17 -12
0z"/>
<path d="M3202 1554 c-28 -20 -29 -60 -2 -69 26 -8 50 11 50 40 0 34 -22 48
-48 29z m28 -34 c0 -11 -7 -20 -15 -20 -15 0 -21 21 -8 33 12 13 23 7 23 -13z"/>
<path d="M3550 1516 l-85 -32 -3 -52 c-2 -41 0 -52 12 -52 11 0 16 13 18 47
l3 47 64 24 c55 22 65 23 72 10 11 -19 59 -12 59 9 0 11 -7 14 -27 9 -16 -3
-22 -3 -15 0 12 6 7 25 -6 23 -4 0 -45 -15 -92 -33z"/>
<path d="M2790 1530 c0 -5 5 -10 11 -10 5 0 7 5 4 10 -3 6 -8 10 -11 10 -2 0
-4 -4 -4 -10z"/>
<path d="M2020 1523 c0 -14 20 -39 20 -26 0 7 7 10 18 6 14 -5 13 -3 -3 10
-22 18 -35 21 -35 10z"/>
<path d="M2444 1505 c11 -8 27 -15 35 -15 13 1 12 4 -3 15 -11 8 -27 15 -35
15 -13 -1 -12 -4 3 -15z"/>
<path d="M1817 1434 c3 -38 7 -71 9 -73 8 -9 3 115 -5 128 -5 8 -7 -14 -4 -55z"/>
<path d="M2060 1481 c0 -6 5 -13 10 -16 6 -3 10 1 10 9 0 9 -4 16 -10 16 -5 0
-10 -4 -10 -9z"/>
<path d="M3530 1477 c-19 -9 -26 -22 -28 -50 -2 -20 1 -37 7 -37 5 0 11 15 13
33 2 27 8 33 31 35 15 2 27 9 27 18 0 17 -17 18 -50 1z"/>
<path d="M3590 1470 c0 -19 3 -21 12 -12 9 9 9 15 0 24 -9 9 -12 7 -12 -12z"/>
<path d="M3650 1470 c0 -24 15 -27 24 -4 9 22 8 24 -9 24 -8 0 -15 -9 -15 -20z"/>
<path d="M3200 1454 c0 -6 17 -26 37 -45 l38 -34 -30 35 c-16 19 -33 39 -37
45 -5 5 -8 5 -8 -1z"/>
<path d="M3710 1450 c0 -5 5 -10 10 -10 6 0 10 5 10 10 0 6 -4 10 -10 10 -5 0
-10 -4 -10 -10z"/>
<path d="M2430 1425 c21 -23 50 -34 50 -19 0 10 -45 43 -59 44 -10 0 -7 -8 9
-25z"/>
<path d="M3533 1435 c-3 -9 -3 -18 0 -21 9 -9 27 6 27 22 0 19 -19 18 -27 -1z"/>
<path d="M3272 1409 c2 -7 10 -15 17 -17 8 -3 12 1 9 9 -2 7 -10 15 -17 17 -8
3 -12 -1 -9 -9z"/>
<path d="M3597 1413 c-4 -3 -7 -11 -7 -17 0 -6 5 -5 12 2 6 6 9 14 7 17 -3 3
-9 2 -12 -2z"/>
<path d="M1918 1403 c6 -2 18 -2 25 0 6 3 1 5 -13 5 -14 0 -19 -2 -12 -5z"/>
<path d="M3310 1396 c0 -9 6 -16 13 -16 6 0 22 -3 35 -6 16 -5 22 -2 22 10 0
9 -6 16 -12 16 -7 0 -23 3 -35 6 -17 5 -23 2 -23 -10z"/>
<path d="M3390 1385 c0 -9 9 -15 25 -15 16 0 25 6 25 15 0 9 -9 15 -25 15 -16
0 -25 -6 -25 -15z"/>
<path d="M3226 1375 c4 -8 11 -15 16 -15 6 0 5 6 -2 15 -7 8 -14 15 -16 15 -2
0 -1 -7 2 -15z"/>
<path d="M3530 1380 c-18 -12 -2 -12 25 0 13 6 15 9 5 9 -8 0 -22 -4 -30 -9z"/>
<path d="M3800 1380 c0 -5 5 -10 11 -10 5 0 7 5 4 10 -3 6 -8 10 -11 10 -2 0
-4 -4 -4 -10z"/>
<path d="M2288 1370 c-9 -6 -46 -19 -82 -31 -36 -11 -66 -24 -66 -29 0 -6 5
-10 12 -10 6 0 9 -3 6 -6 -4 -3 -15 -1 -27 5 -13 7 -22 8 -26 1 -3 -5 -19 -10
-36 -10 -16 0 -29 -4 -29 -9 0 -13 57 -31 94 -30 l31 1 -30 14 -30 15 30 -6
c16 -4 32 -7 35 -8 3 0 24 5 47 11 27 8 53 25 72 50 41 49 40 66 -1 42z"/>
<path d="M3200 1338 c0 -36 4 -48 18 -51 16 -4 16 -5 0 -6 -14 -1 -18 -10 -18
-46 0 -25 2 -45 5 -45 3 0 22 7 41 15 30 12 34 18 28 37 -4 13 -7 29 -7 36 0
6 -4 12 -8 12 -5 0 -6 6 -4 13 2 6 -9 28 -25 47 l-30 34 0 -46z"/>
<path d="M3777 1363 c-4 -3 -7 -11 -7 -17 0 -6 5 -5 12 2 6 6 9 14 7 17 -3 3
-9 2 -12 -2z"/>
<path d="M3388 1353 c18 -2 45 -2 60 0 15 2 0 4 -33 4 -33 0 -45 -2 -27 -4z"/>
<path d="M3651 1346 c-10 -12 -6 -26 10 -26 11 0 19 29 10 35 -5 2 -14 -1 -20
-9z"/>
<path d="M1820 1336 c0 -7 -3 -28 -6 -45 -6 -27 -4 -31 14 -31 15 0 19 5 15
20 -3 11 0 20 6 20 6 0 11 -6 11 -14 0 -24 16 -27 54 -11 41 17 48 30 12 23
-15 -3 -27 0 -30 8 -3 8 -15 14 -26 14 -11 0 -20 4 -20 9 0 5 -7 11 -15 15 -9
3 -15 0 -15 -8z"/>
<path d="M3290 1340 c0 -13 37 -50 51 -50 17 0 43 30 33 39 -15 14 -84 23 -84
11z"/>
<path d="M3590 1334 c0 -8 5 -12 10 -9 6 4 8 11 5 16 -9 14 -15 11 -15 -7z"/>
<path d="M2025 1330 c-15 -7 -10 -9 23 -9 23 -1 42 4 42 9 0 12 -37 12 -65 0z"/>
<path d="M2436 1324 c-21 -21 -20 -38 2 -29 9 4 30 12 45 17 22 8 25 13 15 19
-20 13 -45 11 -62 -7z"/>
<path d="M3458 1304 c-2 -19 0 -37 4 -40 16 -10 28 8 28 42 0 47 -26 46 -32
-2z"/>
<path d="M3565 1330 c3 -5 8 -10 11 -10 2 0 4 5 4 10 0 6 -5 10 -11 10 -5 0
-7 -4 -4 -10z"/>
<path d="M3390 1315 c0 -8 -4 -15 -10 -15 -20 0 -9 -28 13 -34 41 -11 47 -7
47 29 0 31 -3 35 -25 35 -16 0 -25 -6 -25 -15z"/>
<path d="M3500 1301 c0 -17 5 -31 10 -31 6 0 10 9 10 20 0 11 0 23 1 27 0 4
-4 9 -10 11 -6 2 -11 -10 -11 -27z"/>
<path d="M3537 1313 c-10 -10 -8 -43 2 -43 9 0 21 24 21 41 0 11 -14 12 -23 2z"/>
<path d="M3710 1309 c0 -5 5 -7 10 -4 6 3 10 8 10 11 0 2 -4 4 -10 4 -5 0 -10
-5 -10 -11z"/>
<path d="M3926 1312 c-6 -10 30 -9 40 1 4 4 -2 7 -14 7 -11 0 -23 -4 -26 -8z"/>
<path d="M3596 1281 c-4 -7 -5 -15 -2 -18 9 -9 19 4 14 18 -4 11 -6 11 -12 0z"/>
<path d="M3280 1270 c0 -8 5 -22 10 -30 9 -13 10 -13 10 0 0 8 -5 22 -10 30
-9 13 -10 13 -10 0z"/>
<path d="M2251 1261 c-11 -7 -11 -13 -1 -32 30 -57 55 -62 39 -7 -11 40 -21
49 -38 39z"/>
<path d="M3310 1250 c0 -5 7 -10 16 -10 8 0 12 5 9 10 -3 6 -10 10 -16 10 -5
0 -9 -4 -9 -10z"/>
<path d="M3528 1253 c7 -3 16 -2 19 1 4 3 -2 6 -13 5 -11 0 -14 -3 -6 -6z"/>
<path d="M3720 1245 c0 -8 9 -15 20 -15 24 0 27 15 4 24 -22 9 -24 8 -24 -9z"/>
<path d="M3433 1243 c9 -2 23 -2 30 0 6 3 -1 5 -18 5 -16 0 -22 -2 -12 -5z"/>
<path d="M3488 1243 c7 -3 16 -2 19 1 4 3 -2 6 -13 5 -11 0 -14 -3 -6 -6z"/>
<path d="M3771 1234 c0 -11 3 -14 6 -6 3 7 2 16 -1 19 -3 4 -6 -2 -5 -13z"/>
<path d="M2190 1226 c0 -28 12 -46 31 -46 21 0 24 12 9 41 -12 22 -40 26 -40
5z"/>
<path d="M3341 1231 c-25 -16 7 -70 49 -81 50 -14 50 -14 50 35 0 40 -3 45
-22 45 -13 0 -32 3 -43 5 -11 3 -26 1 -34 -4z"/>
<path d="M2120 1220 c0 -5 9 -10 20 -10 11 0 20 5 20 10 0 6 -9 10 -20 10 -11
0 -20 -4 -20 -10z"/>
<path d="M3160 1211 c0 -11 4 -22 9 -25 4 -3 6 6 3 19 -5 30 -12 33 -12 6z"/>
<path d="M3456 1214 c-3 -9 -6 -31 -6 -49 0 -31 2 -33 35 -32 30 1 35 4 36 26
l1 26 7 -24 c6 -22 8 -22 20 -7 17 21 10 29 -29 30 -24 1 -30 5 -30 24 0 25
-25 30 -34 6z"/>
<path d="M3300 1208 c0 -9 5 -20 11 -23 17 -11 18 -2 3 19 -12 17 -14 17 -14
4z"/>
<path d="M3644 1209 c-3 -6 -1 -16 5 -22 9 -9 14 -8 21 3 9 15 4 30 -10 30 -5
0 -12 -5 -16 -11z"/>
<path d="M3560 1200 c0 -5 5 -10 10 -10 6 0 10 5 10 10 0 6 -4 10 -10 10 -5 0
-10 -4 -10 -10z"/>
<path d="M3160 1131 c0 -11 4 -22 9 -25 4 -3 6 6 3 19 -5 30 -12 33 -12 6z"/>
<path d="M3590 1134 c0 -8 5 -12 10 -9 6 3 10 10 10 16 0 5 -4 9 -10 9 -5 0
-10 -7 -10 -16z"/>
<path d="M3660 1140 c0 -5 5 -10 10 -10 6 0 10 5 10 10 0 6 -4 10 -10 10 -5 0
-10 -4 -10 -10z"/>
<path d="M3398 1113 c6 -2 18 -2 25 0 6 3 1 5 -13 5 -14 0 -19 -2 -12 -5z"/>
<path d="M3458 1113 c12 -2 32 -2 45 0 12 2 2 4 -23 4 -25 0 -35 -2 -22 -4z"/>
<path d="M3160 1059 c0 -19 8 -34 25 -45 33 -22 55 -12 55 25 0 34 -13 45 -52
47 -24 1 -28 -2 -28 -27z m60 -9 c0 -11 -7 -20 -15 -20 -17 0 -18 2 -9 24 9
23 24 20 24 -4z"/>
<path d="M3261 1044 c0 -11 3 -14 6 -6 3 7 2 16 -1 19 -3 4 -6 -2 -5 -13z"/>
<path d="M1300 970 c0 -5 -7 -7 -15 -4 -8 4 -15 1 -15 -6 0 -15 42 -9 48 8 2
6 -1 12 -7 12 -6 0 -11 -4 -11 -10z"/>
<path d="M1180 946 c0 -2 7 -6 15 -10 8 -3 15 -1 15 4 0 6 -7 10 -15 10 -8 0
-15 -2 -15 -4z"/>
<path d="M1130 931 c0 -21 13 -41 26 -41 15 0 17 10 8 34 -7 17 -34 22 -34 7z"/>
<path d="M3680 2950 c0 -5 5 -10 10 -10 6 0 10 5 10 10 0 6 -4 10 -10 10 -5 0
-10 -4 -10 -10z"/>
<path d="M3392 2841 c2 -7 7 -12 11 -12 12 1 9 15 -3 20 -7 2 -11 -2 -8 -8z"/>
<path d="M5112 2601 c2 -7 7 -12 11 -12 12 1 9 15 -3 20 -7 2 -11 -2 -8 -8z"/>
<path d="M1125 2461 c-3 -5 -1 -12 5 -16 5 -3 10 1 10 9 0 18 -6 21 -15 7z"/>
<path d="M1178 1607 c-107 -89 4 -363 137 -338 23 5 35 16 53 51 26 51 27 75
8 148 -17 61 -54 115 -100 143 -41 25 -65 24 -98 -4z m114 -74 c33 -35 48 -73
48 -122 0 -63 -34 -88 -88 -65 -55 23 -89 123 -61 177 25 46 63 49 101 10z"/>
<path d="M1212 1525 c-18 -39 -14 -86 9 -124 25 -41 36 -34 14 9 -9 18 -15 34
-12 36 2 2 14 -19 27 -46 13 -28 29 -50 37 -50 16 0 16 10 -1 33 -8 10 -22 48
-32 85 -21 82 -27 90 -42 57z m5 -37 c-3 -8 -6 -5 -6 6 -1 11 2 17 5 13 3 -3
4 -12 1 -19z"/>
<path d="M1255 1508 c12 -52 46 -138 55 -138 14 0 22 39 16 76 -7 34 -50 94
-68 94 -6 0 -7 -13 -3 -32z"/>
<path d="M4090 1590 c0 -5 5 -10 10 -10 6 0 10 5 10 10 0 6 -4 10 -10 10 -5 0
-10 -4 -10 -10z"/>
<path d="M5800 1452 c0 -19 32 -51 45 -46 17 7 20 30 5 39 -16 10 -50 14 -50
7z"/>
<path d="M4450 1410 c-8 -4 -94 -34 -190 -65 -96 -32 -177 -59 -179 -61 -3 -3
0 -9 7 -16 8 -8 15 -8 24 -1 7 6 83 34 168 62 85 29 164 59 175 66 12 7 30 15
40 18 16 4 15 5 -5 5 -14 1 -32 -3 -40 -8z"/>
<path d="M4037 1273 c-3 -5 -7 -136 -9 -293 -3 -157 -2 -229 1 -160 l7 125 2
-131 c2 -104 5 -134 17 -144 9 -7 19 -9 23 -5 4 4 1 10 -5 12 -16 6 -17 45 -3
59 6 6 13 106 17 242 l6 232 -21 0 c-21 0 -22 -5 -25 -132 l-3 -133 -2 148
c-1 88 2 156 8 168 10 18 -3 29 -13 12z"/>
<path d="M4065 1250 c-8 -13 4 -32 16 -25 12 8 12 35 0 35 -6 0 -13 -4 -16
-10z"/>
<path d="M4071 704 c0 -11 3 -14 6 -6 3 7 2 16 -1 19 -3 4 -6 -2 -5 -13z"/>
<path d="M4314 672 c-21 -14 -32 -47 -23 -69 10 -27 33 -31 25 -5 -4 13 0 17
19 18 35 2 55 11 55 25 0 6 -6 9 -13 6 -7 -3 -19 4 -25 14 -13 20 -21 23 -38
11z"/>
<path d="M4364 595 c-17 -13 -17 -14 -2 -15 9 0 20 5 23 11 11 17 0 20 -21 4z"/>
<path d="M1445 1379 c-10 -16 3 -56 20 -63 21 -8 30 19 17 50 -12 25 -27 31
-37 13z"/>
<path d="M4726 1334 c-17 -16 -20 -41 -10 -68 10 -27 24 -18 25 17 0 25 2 28
8 12 8 -19 8 -19 19 0 6 11 12 15 12 8 0 -7 7 -10 15 -7 20 8 19 24 0 24 -9 0
-18 7 -21 15 -8 19 -28 19 -48 -1z"/>
<path d="M4790 1270 c-8 -5 -11 -12 -7 -16 4 -4 15 0 24 9 18 18 8 23 -17 7z"/>
<path d="M972 1259 c1 -12 9 -24 16 -27 9 -3 13 3 10 19 -1 12 -9 24 -16 27
-9 3 -13 -3 -10 -19z"/>
<path d="M648 1193 c7 -3 16 -2 19 1 4 3 -2 6 -13 5 -11 0 -14 -3 -6 -6z"/>
<path d="M607 1174 c-12 -13 -7 -51 8 -64 24 -20 42 2 29 37 -9 27 -25 39 -37
27z"/>
<path d="M660 1161 c0 -24 18 -37 31 -24 13 13 1 43 -17 43 -8 0 -14 -9 -14
-19z"/>
<path d="M4316 1177 c-18 -26 -11 -67 11 -67 9 0 12 6 9 18 -4 13 0 17 19 18
37 3 57 12 50 24 -5 8 -12 7 -23 -2 -10 -7 -14 -8 -10 -4 10 11 -10 36 -28 36
-7 0 -20 -10 -28 -23z m37 -2 c-3 -9 -8 -14 -10 -11 -3 3 -2 9 2 15 9 16 15
13 8 -4z"/>
<path d="M3958 1153 c-28 -7 -21 -21 7 -15 14 2 25 8 25 13 0 9 -4 10 -32 2z"/>
<path d="M2500 1100 c0 -5 14 -10 30 -10 17 0 30 5 30 10 0 6 -13 10 -30 10
-16 0 -30 -4 -30 -10z"/>
<path d="M5481 1068 c-13 -36 -5 -92 14 -108 22 -19 41 57 25 104 -14 44 -25
46 -39 4z"/>
<path d="M1434 1053 c19 -71 19 -71 46 -53 13 8 13 11 1 19 -7 5 -10 14 -7 20
4 6 4 11 -1 10 -4 -1 -15 -1 -23 0 -13 1 -13 2 0 11 13 8 12 10 -3 10 -13 0
-17 -5 -13 -17z"/>
<path d="M6481 1041 c-21 -38 -11 -121 14 -121 17 0 25 23 25 75 0 51 -22 78
-39 46z"/>
<path d="M6394 1006 c-4 -9 -2 -27 4 -39 10 -22 10 -21 17 6 9 33 -10 62 -21
33z"/>
<path d="M3172 837 c-26 -15 -19 -27 17 -28 14 0 20 -3 14 -6 -8 -3 -13 -24
-13 -53 l0 -49 33 11 c39 14 47 24 47 65 0 61 -46 89 -98 60z m78 -56 c0 -21
-13 -41 -26 -41 -14 0 -19 31 -7 43 10 10 33 8 33 -2z"/>
<path d="M3323 715 c-8 -22 6 -33 17 -15 13 20 12 30 0 30 -6 0 -13 -7 -17
-15z"/>
<path d="M4750 780 c0 -5 4 -10 9 -10 6 0 13 5 16 10 3 6 -1 10 -9 10 -9 0
-16 -4 -16 -10z"/>
<path d="M3466 664 c-3 -9 -6 -24 -6 -35 0 -17 4 -20 28 -19 4 1 6 12 4 25 -2
14 1 25 7 25 6 0 11 5 11 10 0 16 -37 11 -44 -6z"/>
<path d="M2446 231 c-4 -7 -5 -15 -2 -18 9 -9 19 4 14 18 -4 11 -6 11 -12 0z"/>
</g>
</svg>
